<?xml version="1.0" standalone="no"?>
<!DOCTYPE svg PUBLIC "-//W3C//DTD SVG 20010904//EN"
 "http://www.w3.org/TR/2001/REC-SVG-20010904/DTD/svg10.dtd">
<svg version="1.0" xmlns="http://www.w3.org/2000/svg"
 width="400.000000pt" height="175.000000pt" viewBox="0 0 441.000000 189.000000"
 preserveAspectRatio="xMidYMid meet">

<g transform="translate(0.000000,189.000000) scale(0.100000,-0.100000)"
fill="#000000" stroke="none">
<path d="M108 1072 l-28 -17 0 -132 0 -132 42 -34 c61 -50 82 -51 88 -7 4 30
9 36 33 38 56 7 60 -2 27 -64 -26 -49 -30 -67 -30 -134 0 -67 4 -85 31 -136
31 -57 88 -124 107 -124 5 0 15 -6 21 -14 19 -23 135 -56 196 -56 l55 0 0 -69
c0 -54 4 -74 21 -95 l20 -26 177 0 c235 1 227 -5 227 164 l0 122 -34 29 c-18
17 -42 38 -53 48 -30 28 -52 18 -56 -26 l-3 -37 -50 0 c-54 0 -58 4 -31 34 10
12 29 45 41 75 42 100 11 249 -66 323 -56 54 -73 68 -81 68 -5 0 -24 8 -43 17
-21 11 -64 19 -116 21 l-83 4 0 43 c0 127 -13 135 -227 135 -131 0 -163 -3
-185 -18z m358 -29 c9 -12 13 -50 14 -115 0 -116 14 -107 -170 -111 l-125 -2
-5 -29 -5 -29 -30 25 c-29 26 -30 29 -33 128 -6 156 -13 150 181 150 140 0
161 -2 173 -17z m94 -228 l0 -65 -61 0 c-52 0 -60 2 -57 17 2 10 12 19 23 21
28 6 45 21 45 43 0 19 25 49 41 49 5 0 9 -29 9 -65z m149 3 c12 -28 21 -55 21
-59 0 -5 -29 -9 -65 -9 l-65 0 0 58 c0 32 2 61 4 63 3 3 23 3 45 1 37 -4 41
-7 60 -54z m83 -13 l29 -25 -27 -10 c-31 -12 -28 -14 -42 28 -14 40 -2 42 40
7z m-392 -29 c0 -9 -8 -12 -25 -8 -14 2 -25 8 -25 13 0 5 11 9 25 9 14 0 25
-6 25 -14z m-31 -37 c22 -8 30 -16 27 -28 -2 -9 -7 -37 -11 -63 l-6 -48 -51 0
-50 0 7 47 c7 50 30 103 44 103 4 0 22 -5 40 -11z m483 -6 c22 -27 38 -71 38
-103 0 -30 -1 -30 -55 -30 l-55 0 0 60 c0 33 0 63 -1 68 0 6 26 17 52 21 3 1
12 -7 21 -16z m-292 -73 l0 -60 -70 0 -70 0 0 38 c0 77 5 82 76 82 l64 0 0
-60z m174 38 c3 -13 6 -40 6 -61 l0 -38 -67 3 -68 3 -3 44 c-5 66 0 71 67 71
52 0 59 -2 65 -22z m-350 -150 c18 -89 17 -96 -20 -108 -41 -14 -57 -2 -73 56
-19 69 -17 74 39 74 43 0 50 -3 54 -22z m176 -32 l0 -53 -62 -6 c-35 -3 -65
-4 -67 -1 -2 2 -6 29 -9 59 l-4 55 71 0 71 0 0 -54z m178 -1 c-3 -30 -7 -57
-9 -59 -2 -2 -31 -1 -64 2 l-60 7 -3 39 c-5 62 0 66 74 66 l66 0 -4 -55z m149
13 c-7 -54 -37 -94 -68 -90 -42 4 -44 8 -41 71 l4 61 55 0 56 0 -6 -42z m-327
-163 c0 -61 -1 -65 -22 -65 -45 0 -71 23 -84 72 -13 53 -12 54 69 57 l37 1 0
-65z m166 52 c10 -10 -11 -47 -27 -47 -12 0 -26 -13 -36 -34 -15 -32 -44 -51
-57 -38 -3 3 -6 34 -6 70 l0 65 62 -7 c34 -3 63 -7 64 -9z m-317 -38 c6 -18
11 -34 11 -36 0 -2 -16 8 -35 23 -36 27 -38 44 -5 44 11 0 22 -12 29 -31z
m404 25 c10 -10 -20 -34 -42 -34 -23 0 -24 1 -15 24 6 16 45 22 57 10z m243
-91 c7 -51 1 -184 -10 -201 -5 -8 -56 -12 -168 -12 -202 0 -198 -2 -198 119 0
47 5 93 10 101 7 12 40 16 157 20 144 5 148 6 151 27 3 21 5 22 27 7 17 -11
26 -29 31 -61z"/>
<path d="M164 955 c-4 -9 -2 -21 4 -27 15 -15 44 -1 40 19 -4 23 -36 29 -44 8z"/>
<path d="M274 955 c-8 -19 3 -35 26 -35 22 0 33 23 17 39 -15 15 -37 14 -43
-4z"/>
<path d="M387 957 c-8 -21 8 -39 29 -35 27 5 25 42 -2 46 -12 2 -24 -3 -27
-11z"/>
<path d="M737 233 c-13 -12 -7 -41 9 -47 22 -9 34 1 34 30 0 17 -6 24 -18 24
-10 0 -22 -3 -25 -7z"/>
<path d="M850 225 c-10 -12 -10 -18 0 -30 24 -29 58 -7 44 30 -4 8 -12 15 -19
15 -7 0 -18 -7 -25 -15z"/>
<path d="M962 228 c-14 -14 2 -48 22 -48 17 0 27 25 20 45 -7 18 -26 19 -42 3z"/>
<path d="M1072 981 c-3 -8 0 -17 6 -19 20 -6 16 -171 -5 -194 -9 -10 -13 -21
-10 -24 10 -10 94 -17 121 -10 28 7 35 31 11 40 -21 8 -21 76 1 76 9 0 18 -9
21 -20 11 -42 43 -16 43 35 0 49 -30 76 -44 40 -3 -8 -13 -15 -21 -15 -12 0
-15 8 -13 33 3 29 6 32 36 30 18 0 41 -8 51 -17 10 -9 23 -16 29 -16 16 0 16
57 0 66 -6 4 -59 8 -116 8 -83 1 -105 -1 -110 -13z"/>
<path d="M1383 990 c-28 -11 -29 -21 -3 -38 17 -10 20 -23 20 -89 0 -57 -4
-81 -17 -95 -9 -10 -14 -20 -12 -22 2 -2 50 -6 107 -7 112 -4 122 0 122 52 0
39 -10 41 -40 9 -29 -31 -37 -35 -57 -22 -16 10 -20 175 -4 180 19 6 12 29
-11 36 -32 8 -79 6 -105 -4z"/>
<path d="M1762 988 c-7 -7 -12 -24 -12 -38 0 -32 -65 -169 -88 -187 -15 -11
-15 -14 -2 -23 19 -12 70 -13 89 -1 12 8 12 12 2 25 -18 22 -5 36 32 36 42 0
68 -16 48 -29 -8 -5 -11 -16 -8 -25 5 -12 21 -16 65 -16 67 0 94 17 66 41 -9
7 -38 57 -65 111 -56 111 -92 141 -127 106z m51 -128 c4 -17 0 -20 -24 -20
-31 0 -35 10 -18 41 12 23 33 12 42 -21z"/>
<path d="M2080 983 c-72 -37 -63 -109 19 -150 61 -31 67 -39 42 -52 -25 -14
-56 -1 -83 33 -22 27 -42 10 -32 -28 7 -31 26 -43 82 -52 77 -12 145 29 145
87 0 37 -20 58 -75 79 -49 18 -65 50 -25 50 13 0 34 -9 47 -20 27 -24 44 -22
48 6 7 49 -103 80 -168 47z"/>
<path d="M2343 990 c-25 -10 -29 -20 -12 -37 16 -16 16 -145 0 -176 -8 -15
-11 -30 -7 -34 9 -9 112 -10 122 0 4 4 2 18 -5 31 -7 12 -11 34 -9 47 2 19 10
25 36 27 30 3 32 1 32 -28 0 -16 -6 -39 -12 -50 -18 -29 5 -42 65 -37 56 5 65
11 49 37 -16 26 -16 164 1 190 16 27 -3 40 -58 40 -55 0 -74 -13 -57 -40 6
-11 12 -31 12 -45 0 -24 -3 -26 -32 -23 -26 2 -34 8 -36 26 -2 13 3 31 12 41
12 13 13 20 4 29 -14 14 -73 15 -105 2z"/>
<path d="M2753 981 c-105 -49 -96 -202 15 -241 72 -25 162 10 162 63 0 14 -4
17 -17 12 -60 -25 -107 -16 -128 25 -47 91 17 148 84 74 34 -37 47 -39 65 -11
18 29 -4 70 -44 80 -71 18 -95 17 -137 -2z"/>
<path d="M3100 981 c-5 -11 -10 -29 -10 -41 0 -32 -58 -153 -83 -172 -19 -15
-20 -19 -7 -28 19 -12 70 -13 89 -1 12 8 12 12 2 25 -18 22 -5 36 32 36 45 0
65 -14 48 -34 -7 -8 -10 -20 -6 -26 7 -11 103 -14 129 -4 20 8 21 30 2 37 -8
3 -34 48 -59 100 -43 92 -74 127 -109 127 -9 0 -22 -9 -28 -19z m60 -132 c0
-5 -13 -9 -30 -9 -34 0 -34 -1 -19 37 l11 28 19 -24 c10 -13 19 -27 19 -32z"/>
<path d="M3376 987 c-16 -12 -16 -14 -2 -26 23 -19 23 -163 0 -186 -23 -23 -6
-37 53 -42 55 -4 85 9 65 29 -6 6 -12 29 -12 50 0 35 2 38 19 29 10 -6 21 -25
25 -42 9 -48 33 -69 78 -69 38 0 64 24 41 39 -5 3 -15 21 -21 40 -7 18 -20 39
-29 46 -17 13 -17 14 0 32 23 26 22 66 -3 88 -27 24 -185 33 -214 12z m132
-39 c17 -17 15 -43 -3 -58 -23 -19 -39 1 -30 39 7 34 14 38 33 19z"/>
<path d="M3723 985 c-4 -11 -2 -20 5 -23 19 -6 16 -181 -3 -188 -15 -6 -21
-33 -7 -35 42 -7 165 -6 194 2 55 14 88 59 88 119 0 104 -32 130 -171 137 -89
5 -99 4 -106 -12z m162 -45 c45 -49 24 -175 -28 -168 -21 3 -22 9 -25 96 -3
84 -1 92 16 92 10 0 27 -9 37 -20z"/>
<path d="M4140 993 c-34 -13 -60 -47 -60 -78 0 -43 23 -71 75 -91 45 -17 58
-37 30 -48 -22 -8 -62 10 -77 34 -17 27 -38 25 -38 -4 0 -43 29 -66 90 -72 94
-9 154 40 136 110 -5 20 -21 33 -64 54 -31 15 -57 32 -57 37 0 20 45 16 75 -7
25 -18 33 -20 39 -9 10 16 3 47 -13 60 -14 11 -116 22 -136 14z"/>
<path d="M1828 455 c-3 -41 -1 -45 18 -45 18 0 21 4 16 22 -4 17 -2 20 11 15
11 -4 17 -1 17 8 0 9 -6 12 -15 9 -10 -4 -15 0 -15 11 0 13 6 16 25 13 14 -3
25 -1 25 3 0 5 -18 9 -39 9 l-39 0 -4 -45z"/>
<path d="M1968 455 c3 -34 8 -45 21 -45 12 0 16 10 16 45 0 38 -3 45 -20 45
-18 0 -20 -5 -17 -45z"/>
<path d="M2073 483 c-4 -11 3 -24 23 -41 l29 -24 -27 5 c-16 2 -28 0 -28 -4 0
-16 57 -10 71 7 11 14 10 18 -6 30 -10 8 -22 14 -27 14 -4 0 -8 5 -8 11 0 6 9
9 20 6 11 -3 20 -1 20 4 0 17 -60 10 -67 -8z"/>
<path d="M2207 493 c-14 -13 -6 -25 8 -13 23 19 28 6 11 -29 -22 -41 -21 -41
24 -41 32 0 40 4 39 18 0 10 -3 12 -6 5 -5 -14 -33 -18 -33 -5 1 4 7 18 15 32
8 14 14 28 15 33 0 9 -64 10 -73 0z"/>
<path d="M2355 455 c0 -36 3 -45 17 -45 11 0 15 5 12 15 -4 8 -2 15 4 15 5 0
15 -7 22 -15 7 -8 21 -15 32 -15 17 0 16 3 -7 27 -30 33 -31 39 -7 52 15 9 15
10 1 11 -9 0 -19 -7 -23 -15 -3 -8 -10 -15 -17 -15 -6 0 -9 7 -5 15 3 10 -1
15 -12 15 -14 0 -17 -9 -17 -45z"/>
<path d="M2518 455 c3 -34 8 -45 21 -45 12 0 16 10 16 45 0 38 -3 45 -20 45
-18 0 -20 -5 -17 -45z"/>
<path d="M2705 455 c0 -39 3 -45 20 -45 18 0 20 5 17 41 -3 32 -1 40 9 37 8
-3 13 -13 11 -23 -2 -11 2 -15 10 -13 7 3 13 13 13 24 0 15 -8 20 -40 22 l-40
3 0 -46z"/>
<path d="M2855 455 l0 -45 38 0 c29 0 37 4 36 18 0 10 -3 12 -6 5 -2 -7 -14
-13 -25 -13 -18 0 -20 5 -15 40 4 33 2 40 -11 40 -13 0 -17 -10 -17 -45z"/>
<path d="M3100 485 c0 -8 5 -15 10 -15 6 0 10 -7 10 -15 0 -17 -17 -20 -22 -4
-2 6 -9 0 -16 -15 -10 -22 -9 -26 4 -26 8 0 12 5 9 10 -3 6 3 10 14 10 10 0
21 -5 23 -11 2 -6 11 -10 20 -8 16 4 16 7 -2 47 -18 41 -50 58 -50 27z"/>
<path d="M3235 455 c0 -35 4 -45 17 -45 11 0 15 6 11 20 -3 11 -1 20 4 20 6 0
18 -9 28 -20 26 -29 33 -25 37 25 2 30 -1 45 -8 45 -7 0 -10 -8 -7 -20 3 -11
1 -20 -4 -20 -6 0 -18 9 -28 20 -32 35 -50 26 -50 -25z"/>
<path d="M3412 488 c-7 -7 -12 -21 -12 -33 0 -45 64 -63 88 -25 11 18 10 20
-15 20 -20 0 -24 -3 -14 -9 9 -6 10 -11 2 -15 -18 -11 -31 3 -31 35 0 29 22
41 35 19 9 -15 25 -12 25 5 0 19 -60 21 -78 3z"/>
<path d="M2980 440 c0 -5 7 -10 15 -10 8 0 15 5 15 10 0 6 -7 10 -15 10 -8 0
-15 -4 -15 -10z"/>
</g>
</svg>
