<?xml version="1.0" standalone="no"?>
<!DOCTYPE svg PUBLIC "-//W3C//DTD SVG 20010904//EN"
 "http://www.w3.org/TR/2001/REC-SVG-20010904/DTD/svg10.dtd">
<svg version="1.0" xmlns="http://www.w3.org/2000/svg"
 width="413.000000pt" height="116.000000pt" viewBox="0 0 413.000000 116.000000"
 preserveAspectRatio="xMidYMid meet">

<g transform="translate(0.000000,116.000000) scale(0.100000,-0.100000)"
fill="#000000" stroke="none">
<path d="M382 771 c-3 -8 0 -17 6 -19 20 -6 16 -171 -5 -194 -9 -10 -13 -21
-10 -24 10 -10 94 -17 121 -10 28 7 35 31 11 40 -21 8 -21 76 1 76 9 0 18 -9
21 -20 6 -24 28 -26 37 -4 15 38 3 94 -20 94 -8 0 -14 -7 -14 -15 0 -8 -9 -15
-21 -15 -17 0 -20 5 -17 33 3 29 6 32 36 30 18 0 41 -8 51 -17 10 -9 23 -16
29 -16 16 0 16 57 0 66 -6 4 -59 8 -116 8 -83 1 -105 -1 -110 -13z"/>
<path d="M693 780 c-28 -11 -29 -21 -3 -38 17 -10 20 -23 20 -89 0 -57 -4 -81
-17 -95 -9 -10 -14 -20 -12 -22 2 -2 50 -6 107 -7 112 -4 122 0 122 52 0 39
-10 41 -40 9 -29 -31 -37 -35 -57 -22 -16 10 -20 175 -4 180 16 5 14 29 -5 36
-23 9 -85 6 -111 -4z"/>
<path d="M1072 778 c-7 -7 -12 -24 -12 -38 0 -32 -65 -169 -88 -187 -15 -11
-15 -14 -2 -23 19 -12 70 -13 89 -1 12 8 12 12 2 25 -18 22 -5 36 32 36 42 0
68 -16 48 -29 -8 -5 -11 -16 -8 -25 5 -12 21 -16 65 -16 67 0 94 17 66 41 -9
7 -38 57 -65 111 -56 111 -92 141 -127 106z m51 -128 c4 -17 0 -20 -24 -20
-31 0 -35 10 -18 41 12 23 33 12 42 -21z"/>
<path d="M1390 773 c-72 -37 -63 -109 19 -150 61 -31 67 -39 42 -52 -25 -14
-56 -1 -83 33 -22 27 -42 10 -32 -28 7 -31 26 -43 82 -52 77 -12 145 29 145
87 0 37 -20 58 -75 79 -49 18 -65 50 -25 50 13 0 34 -9 47 -20 27 -24 44 -22
48 6 7 49 -103 80 -168 47z"/>
<path d="M1653 780 c-25 -10 -29 -20 -12 -37 16 -16 16 -145 0 -176 -8 -15
-11 -30 -7 -34 9 -9 112 -10 122 0 4 4 2 18 -5 31 -7 12 -11 34 -9 47 2 19 10
25 36 27 30 3 32 1 32 -28 0 -16 -6 -39 -12 -50 -18 -29 5 -42 65 -37 56 5 65
11 49 37 -16 26 -16 164 1 190 16 27 -3 40 -58 40 -55 0 -74 -13 -57 -40 6
-11 12 -31 12 -45 0 -24 -3 -26 -32 -23 -26 2 -34 8 -36 26 -2 13 3 31 12 41
12 13 13 20 4 29 -14 14 -73 15 -105 2z"/>
<path d="M2063 771 c-105 -48 -96 -202 15 -241 72 -25 162 10 162 63 0 14 -4
17 -17 12 -60 -25 -107 -16 -128 25 -47 91 17 148 84 74 18 -19 37 -34 44 -31
22 7 32 35 22 63 -8 21 -21 30 -60 40 -66 17 -73 17 -122 -5z"/>
<path d="M2410 771 c-5 -11 -10 -29 -10 -41 0 -32 -58 -153 -83 -172 -19 -15
-20 -19 -7 -28 19 -12 70 -13 89 -1 12 8 12 12 2 25 -18 22 -5 36 32 36 45 0
65 -14 48 -34 -7 -8 -10 -20 -6 -26 7 -11 103 -14 129 -4 20 8 21 30 2 37 -8
3 -34 48 -59 100 -43 92 -74 127 -109 127 -9 0 -22 -9 -28 -19z m60 -132 c0
-5 -13 -9 -30 -9 -34 0 -34 -1 -19 37 l11 28 19 -24 c10 -13 19 -27 19 -32z"/>
<path d="M2686 777 c-16 -12 -16 -14 -2 -26 23 -19 23 -163 0 -186 -23 -23 -6
-37 53 -42 55 -4 85 9 65 29 -6 6 -12 29 -12 50 0 48 24 42 41 -10 17 -55 36
-72 81 -72 38 0 64 24 41 39 -5 3 -15 21 -21 40 -7 18 -20 39 -29 46 -17 13
-17 14 0 32 23 26 22 66 -3 88 -26 24 -186 33 -214 12z m138 -50 c8 -12 8 -22
0 -34 -25 -40 -52 -17 -40 33 7 27 23 28 40 1z"/>
<path d="M3033 775 c-4 -11 -2 -20 5 -23 19 -6 16 -181 -3 -188 -15 -6 -21
-33 -7 -35 42 -7 165 -6 194 2 55 14 88 59 88 119 0 104 -32 130 -171 137 -89
5 -99 4 -106 -12z m162 -45 c23 -25 30 -107 13 -140 -9 -16 -22 -25 -38 -25
-25 0 -25 2 -28 93 -3 84 -1 92 16 92 10 0 27 -9 37 -20z"/>
<path d="M3450 783 c-33 -12 -60 -47 -60 -78 0 -43 23 -71 75 -91 45 -17 58
-37 30 -48 -22 -8 -62 10 -77 34 -17 27 -38 25 -38 -4 0 -43 29 -66 90 -72 96
-9 159 44 134 113 -7 20 -23 33 -59 48 -52 20 -67 33 -59 47 9 15 45 8 75 -14
24 -18 32 -20 38 -9 10 16 3 47 -13 59 -14 12 -116 23 -136 15z"/>
<path d="M1138 245 c-3 -41 -1 -45 18 -45 18 0 21 4 16 22 -4 17 -2 20 11 15
11 -4 17 -1 17 8 0 9 -6 12 -15 9 -10 -4 -15 0 -15 11 0 13 6 16 25 13 14 -3
25 -1 25 3 0 5 -18 9 -39 9 l-39 0 -4 -45z"/>
<path d="M1278 245 c3 -34 8 -45 21 -45 12 0 16 10 16 45 0 38 -3 45 -20 45
-18 0 -20 -5 -17 -45z"/>
<path d="M1383 273 c-4 -11 3 -24 23 -41 l29 -24 -27 5 c-16 2 -28 0 -28 -4 0
-16 57 -10 71 7 11 14 10 18 -6 30 -10 8 -22 14 -27 14 -4 0 -8 5 -8 11 0 6 9
9 20 6 11 -3 20 -1 20 4 0 17 -60 10 -67 -8z"/>
<path d="M1517 283 c-14 -13 -6 -25 8 -13 23 19 28 6 11 -29 -22 -41 -21 -41
24 -41 32 0 40 4 39 18 0 10 -3 12 -6 5 -5 -14 -33 -18 -33 -5 1 4 7 18 15 32
8 14 14 28 15 33 0 9 -64 10 -73 0z"/>
<path d="M1665 245 c0 -36 3 -45 17 -45 11 0 15 5 12 15 -4 8 -2 15 4 15 5 0
15 -7 22 -15 7 -8 21 -15 32 -15 17 0 16 3 -7 27 -30 33 -31 39 -7 52 15 9 15
10 1 11 -9 0 -19 -7 -23 -15 -3 -8 -10 -15 -17 -15 -6 0 -9 7 -5 15 3 10 -1
15 -12 15 -14 0 -17 -9 -17 -45z"/>
<path d="M1828 245 c3 -34 8 -45 21 -45 12 0 16 10 16 45 0 38 -3 45 -20 45
-18 0 -20 -5 -17 -45z"/>
<path d="M2015 245 c0 -39 3 -45 20 -45 18 0 20 5 17 41 -3 32 -1 40 9 37 8
-3 13 -13 11 -23 -2 -11 2 -15 10 -13 7 3 13 13 13 24 0 15 -8 20 -40 22 l-40
3 0 -46z"/>
<path d="M2165 245 l0 -45 38 0 c29 0 37 4 37 18 0 14 -2 14 -9 3 -5 -8 -16
-11 -26 -7 -14 5 -16 14 -12 41 5 28 3 35 -11 35 -13 0 -17 -9 -17 -45z"/>
<path d="M2410 275 c0 -8 5 -15 10 -15 6 0 10 -7 10 -15 0 -17 -17 -20 -22 -4
-2 6 -9 0 -16 -15 -10 -22 -9 -26 4 -26 8 0 12 5 9 10 -3 6 3 10 14 10 12 0
21 -4 21 -10 0 -5 9 -10 20 -10 25 0 25 2 0 50 -20 39 -50 54 -50 25z"/>
<path d="M2545 245 c0 -35 4 -45 17 -45 11 0 15 6 11 20 -3 11 -1 20 4 20 6 0
18 -9 28 -20 26 -29 33 -25 37 25 2 30 -1 45 -8 45 -7 0 -10 -8 -7 -20 3 -11
1 -20 -4 -20 -6 0 -18 9 -28 20 -32 35 -50 26 -50 -25z"/>
<path d="M2722 278 c-7 -7 -12 -21 -12 -33 0 -45 64 -63 88 -25 11 18 10 20
-15 20 -20 0 -24 -3 -14 -9 10 -7 11 -10 1 -16 -17 -11 -39 20 -33 45 6 21 28
27 38 10 9 -15 25 -12 25 5 0 19 -60 21 -78 3z"/>
<path d="M2290 230 c0 -5 7 -10 15 -10 8 0 15 5 15 10 0 6 -7 10 -15 10 -8 0
-15 -4 -15 -10z"/>
</g>
</svg>
