<?xml version="1.0" standalone="no"?>
<!DOCTYPE svg PUBLIC "-//W3C//DTD SVG 20010904//EN"
 "http://www.w3.org/TR/2001/REC-SVG-20010904/DTD/svg10.dtd">
<svg version="1.0" xmlns="http://www.w3.org/2000/svg"
 width="100.000000pt" height="100.000000pt" viewBox="0 0 131.000000 138.000000"
 preserveAspectRatio="xMidYMid meet">

<g transform="translate(0.000000,138.000000) scale(0.100000,-0.100000)"
fill="#000000" stroke="none">
<path d="M104 1320 c-47 -19 -54 -45 -54 -192 0 -75 4 -148 9 -161 11 -27 115
-117 136 -117 9 0 15 16 17 48 3 47 3 47 42 50 65 6 68 -1 36 -60 -17 -32 -34
-83 -40 -125 -39 -253 153 -473 414 -473 l66 0 0 -89 c0 -82 2 -92 26 -120
l26 -31 208 0 c206 0 209 0 237 24 l28 24 0 155 c0 175 3 165 -89 239 -57 45
-76 39 -76 -23 l0 -39 -60 0 c-60 0 -72 8 -46 29 7 6 26 39 42 74 26 56 29 72
29 167 0 97 -2 110 -32 172 -72 152 -231 248 -394 236 l-49 -3 0 68 c0 79 -19
129 -56 146 -30 13 -388 14 -420 1z m408 -47 c16 -14 18 -33 18 -138 0 -89 -4
-126 -13 -134 -8 -6 -77 -12 -178 -13 l-164 -3 -5 -35 -5 -35 -38 36 -37 37 0
129 c0 184 -14 173 217 173 159 0 189 -2 205 -17z m118 -288 l0 -85 -29 0
c-60 0 -121 13 -121 26 0 7 17 21 37 31 28 13 42 29 52 58 15 41 27 55 49 55
9 0 12 -24 12 -85z m117 70 c29 -6 34 -13 53 -71 12 -36 20 -67 17 -70 -2 -3
-37 -8 -76 -11 l-71 -6 0 80 c0 84 4 96 29 89 9 -3 30 -7 48 -11z m145 -76
c41 -33 41 -42 -3 -53 -23 -5 -28 -2 -33 22 -4 15 -9 35 -12 45 -8 24 3 21 48
-14z m-452 -45 c0 -11 -6 -14 -22 -9 -39 12 -44 25 -10 25 22 0 32 -5 32 -16z
m-47 -45 c35 -9 37 -12 33 -42 -3 -18 -8 -53 -11 -79 l-6 -48 -61 0 -61 0 6
45 c7 44 44 135 56 135 3 0 23 -5 44 -11z m581 -11 c15 -24 46 -122 46 -145 0
-9 -18 -13 -64 -13 l-64 0 -7 53 c-3 28 -8 64 -11 78 -4 22 0 27 28 36 49 16
56 15 72 -9z m-393 -18 l49 0 0 -70 0 -70 -85 0 -85 0 0 44 c0 24 3 58 6 76 6
29 9 31 37 26 16 -3 51 -6 78 -6z m253 -21 c3 -17 6 -51 6 -76 l0 -44 -82 3
-83 3 0 65 0 65 55 6 c101 11 97 12 104 -22z m-420 -191 c3 -18 7 -54 10 -80
l6 -47 -41 -11 c-36 -10 -43 -9 -54 7 -18 24 -45 109 -45 139 0 23 3 24 60 24
59 0 59 0 64 -32z m216 -37 l0 -68 -77 -6 c-43 -2 -80 -3 -82 -1 -2 2 -6 35
-9 74 l-5 70 87 0 86 0 0 -69z m208 -1 c-3 -39 -7 -72 -9 -75 -2 -2 -38 0 -79
3 l-75 7 -3 54 c-5 81 -4 81 89 81 l82 0 -5 -70z m182 56 c0 -28 -40 -144 -54
-155 -11 -9 -25 -9 -56 -1 -38 10 -41 14 -36 38 3 15 8 51 11 80 l7 52 64 0
c48 0 64 -3 64 -14z m-390 -246 l0 -80 -32 0 c-65 0 -88 25 -111 122 -8 30 2
34 96 37 l47 1 0 -80z m187 67 c11 -12 -12 -58 -35 -69 -22 -11 -40 -34 -54
-70 -2 -3 -15 -10 -30 -13 l-28 -7 0 87 0 88 71 -6 c39 -3 73 -8 76 -10z
m-369 -49 c6 -23 9 -44 7 -46 -2 -2 -21 12 -42 31 l-38 36 25 10 c37 14 37 15
48 -31z m475 25 c14 -8 -22 -33 -48 -33 -21 0 -26 4 -21 16 3 9 6 20 6 25 0 8
43 3 63 -8z m263 -44 l29 -30 0 -133 c0 -98 -4 -137 -14 -149 -12 -15 -39 -17
-204 -17 -240 0 -227 -8 -227 145 0 160 -8 154 200 157 l165 3 3 28 c4 35 11
34 48 -4z"/>
<path d="M154 1166 c-10 -26 4 -48 28 -44 17 2 23 10 23 28 0 18 -6 26 -23 28
-13 2 -25 -3 -28 -12z"/>
<path d="M284 1165 c-9 -23 3 -45 24 -45 28 0 43 20 31 42 -12 22 -47 24 -55
3z"/>
<path d="M417 1166 c-11 -28 4 -47 32 -44 20 2 26 8 26 28 0 20 -6 26 -26 28
-17 2 -29 -3 -32 -12z"/>
<path d="M837 254 c-13 -13 -7 -52 8 -58 27 -10 46 5 43 33 -3 26 -35 41 -51
25z"/>
<path d="M970 246 c-27 -33 18 -72 48 -42 13 13 14 20 6 34 -15 23 -38 26 -54
8z"/>
<path d="M1101 246 c-15 -17 1 -56 23 -56 23 0 41 30 29 48 -14 23 -37 26 -52
8z"/>
</g>
</svg>
