<?xml version="1.0" standalone="no"?>
<!DOCTYPE svg PUBLIC "-//W3C//DTD SVG 20010904//EN"
 "http://www.w3.org/TR/2001/REC-SVG-20010904/DTD/svg10.dtd">
<svg version="1.0" xmlns="http://www.w3.org/2000/svg"
 width="594.000000pt" height="500.000000pt" viewBox="0 0 594.000000 500.000000"
 preserveAspectRatio="xMidYMid meet">

<g transform="translate(0.000000,500.000000) scale(0.100000,-0.100000)"
fill="#000000" stroke="none">
<path d="M5183 4830 c-27 -11 -69 -74 -78 -117 -6 -32 -8 -33 -46 -27 -33 6
-44 3 -64 -16 -28 -26 -32 -65 -11 -96 13 -18 27 -20 128 -22 62 -2 175 -9
252 -17 236 -25 308 -18 336 35 22 41 -30 90 -95 90 -23 0 -46 5 -53 12 -6 6
-31 11 -55 10 -33 -2 -49 3 -62 18 -12 13 -31 20 -54 20 -32 0 -38 5 -55 41
-29 64 -87 91 -143 69z m93 -35 c32 -20 49 -70 35 -101 -6 -14 -11 -34 -11
-44 0 -10 -8 -23 -17 -29 -10 -5 -15 -13 -11 -17 9 -8 38 14 38 28 0 6 9 23
21 39 18 25 27 30 58 27 33 -3 36 -6 39 -35 4 -36 13 -41 32 -18 19 23 75 19
91 -6 13 -18 18 -19 41 -9 34 16 82 -5 86 -38 3 -18 -4 -26 -32 -37 -30 -13
-61 -14 -198 -5 -162 10 -233 16 -296 26 l-32 5 27 24 c16 13 22 25 15 25 -7
0 -24 -11 -37 -24 -43 -43 -135 -40 -135 5 0 51 54 74 98 43 25 -17 27 -15 36
49 2 20 15 51 27 68 35 49 73 56 125 24z"/>
<path d="M5198 4624 c-27 -14 -38 -34 -19 -34 13 0 57 37 51 43 -3 3 -17 -1
-32 -9z"/>
<path d="M5320 4605 c-10 -12 -10 -15 3 -15 8 0 20 7 27 15 10 12 10 15 -3 15
-8 0 -20 -7 -27 -15z"/>
<path d="M5380 4600 c-8 -5 -12 -12 -9 -15 8 -8 39 5 39 16 0 11 -11 11 -30
-1z"/>
<path d="M5447 4593 c-12 -12 -7 -22 8 -17 8 4 15 10 15 15 0 11 -14 12 -23 2z"/>
<path d="M5510 4580 c0 -5 4 -10 9 -10 6 0 13 5 16 10 3 6 -1 10 -9 10 -9 0
-16 -4 -16 -10z"/>
<path d="M5595 4570 c3 -5 8 -10 11 -10 2 0 4 5 4 10 0 6 -5 10 -11 10 -5 0
-7 -4 -4 -10z"/>
<path d="M2805 4755 c-46 -17 -82 -57 -91 -101 -5 -30 -7 -31 -57 -29 -42 1
-53 6 -61 24 -11 25 -45 36 -81 27 -18 -5 -34 0 -55 15 -26 20 -33 21 -69 11
-40 -12 -65 -41 -77 -85 -5 -23 -12 -26 -52 -29 -41 -3 -48 -7 -56 -30 -8 -23
-6 -32 14 -53 l23 -25 196 0 c108 1 301 -4 430 -10 190 -9 236 -8 242 2 5 7 7
18 6 23 -3 10 -84 58 -119 71 -12 4 -16 13 -12 28 3 15 -3 29 -20 45 -19 18
-24 30 -20 50 12 60 -62 95 -141 66z m106 -24 c21 -17 22 -21 11 -58 -16 -53
-15 -55 7 -48 24 7 44 -23 30 -46 -14 -23 -11 -29 17 -29 17 0 28 -6 31 -19 4
-14 15 -21 41 -23 19 -2 38 -9 40 -17 4 -11 -5 -13 -44 -7 -27 3 -215 9 -419
12 -203 4 -378 11 -387 16 -23 11 -23 31 2 53 16 14 24 15 51 6 18 -6 33 -11
34 -11 1 0 5 17 9 38 6 41 37 76 75 85 27 7 71 -30 71 -60 1 -14 5 -12 21 10
11 15 28 27 37 27 22 0 52 -30 52 -52 0 -21 9 -22 45 -6 21 9 32 8 60 -5 l35
-17 0 36 c0 53 26 93 73 115 53 24 79 24 108 0z"/>
<path d="M2760 4551 c-19 -16 -31 -33 -27 -37 4 -5 24 9 45 29 44 44 32 49
-18 8z"/>
<path d="M2830 4552 c-13 -10 -21 -24 -19 -31 3 -7 15 0 34 19 31 33 21 41
-15 12z"/>
<path d="M2390 4540 c-14 -10 -21 -22 -17 -26 4 -4 17 2 29 14 28 28 20 36
-12 12z"/>
<path d="M2574 4546 c-10 -8 -16 -17 -13 -20 3 -3 14 1 25 8 10 8 16 17 13 20
-3 3 -14 -1 -25 -8z"/>
<path d="M2640 4545 c-17 -21 -9 -27 13 -10 10 7 14 16 9 19 -5 3 -15 -1 -22
-9z"/>
<path d="M2696 4544 c-11 -7 -16 -17 -13 -21 4 -4 15 1 24 10 22 21 14 30 -11
11z"/>
<path d="M2445 4539 c-11 -17 1 -21 15 -4 8 9 8 15 2 15 -6 0 -14 -5 -17 -11z"/>
<path d="M2510 4540 c-8 -5 -12 -11 -9 -14 3 -3 14 1 25 9 21 16 8 20 -16 5z"/>
<path d="M2865 4529 c-12 -19 5 -23 22 -6 16 16 16 17 1 17 -9 0 -20 -5 -23
-11z"/>
<path d="M2925 4520 c-3 -5 -1 -10 4 -10 6 0 11 5 11 10 0 6 -2 10 -4 10 -3 0
-8 -4 -11 -10z"/>
<path d="M4152 4693 c-12 -58 -10 -75 8 -57 14 14 25 114 13 114 -5 0 -14 -26
-21 -57z"/>
<path d="M1030 4711 c-16 -16 -32 -41 -35 -57 -12 -53 -13 -54 -45 -48 -55 11
-80 -40 -42 -85 16 -20 27 -21 317 -23 276 -3 303 -2 328 15 37 24 34 66 -5
85 -21 10 -28 20 -28 43 0 22 -6 32 -26 39 -42 16 -71 12 -104 -17 -27 -22
-35 -25 -51 -15 -10 7 -30 12 -43 12 -16 0 -27 7 -31 20 -8 24 -51 37 -75 22
-14 -9 -22 -6 -41 14 -32 34 -82 33 -119 -5z m104 -7 c9 -8 16 -26 16 -39 0
-34 18 -40 31 -11 12 27 41 42 59 31 5 -3 10 -22 10 -41 l0 -35 29 17 c25 15
32 15 45 5 9 -8 16 -20 16 -27 0 -22 11 -17 50 26 24 26 46 40 61 40 39 0 53
-14 45 -46 -10 -39 -11 -38 26 -44 25 -4 33 -10 33 -25 0 -37 -50 -43 -343
-37 -224 4 -276 7 -288 20 -34 34 6 60 58 38 14 -6 18 0 24 31 9 48 29 89 51
102 26 15 59 13 77 -5z"/>
<path d="M1040 4565 c-13 -14 -19 -25 -13 -25 5 0 20 11 33 25 13 14 19 25 13
25 -5 0 -20 -11 -33 -25z"/>
<path d="M1094 4566 c-10 -8 -15 -18 -11 -22 4 -4 17 2 30 14 24 25 12 30 -19
8z"/>
<path d="M1154 4566 c-10 -8 -15 -18 -11 -22 4 -4 15 0 24 9 22 21 12 31 -13
13z"/>
<path d="M1190 4555 c-8 -9 -8 -15 -2 -15 12 0 26 19 19 26 -2 2 -10 -2 -17
-11z"/>
<path d="M1250 4554 c0 -8 5 -12 10 -9 6 3 10 10 10 16 0 5 -4 9 -10 9 -5 0
-10 -7 -10 -16z"/>
<path d="M1310 4549 c0 -5 5 -7 10 -4 6 3 10 8 10 11 0 2 -4 4 -10 4 -5 0 -10
-5 -10 -11z"/>
<path d="M1365 4550 c-3 -5 -1 -10 4 -10 6 0 11 5 11 10 0 6 -2 10 -4 10 -3 0
-8 -4 -11 -10z"/>
<path d="M1410 4549 c0 -5 5 -7 10 -4 6 3 10 8 10 11 0 2 -4 4 -10 4 -5 0 -10
-5 -10 -11z"/>
<path d="M3840 4730 c0 -23 25 -100 32 -100 11 0 10 28 -3 73 -9 33 -29 52
-29 27z"/>
<path d="M4363 4698 c-12 -15 -53 -94 -53 -103 0 -3 5 -5 11 -5 5 0 22 25 36
56 24 53 27 78 6 52z"/>
<path d="M3617 4674 c-8 -9 41 -104 53 -104 14 0 13 5 -15 60 -27 52 -28 54
-38 44z"/>
<path d="M3845 4574 c-175 -38 -331 -160 -407 -321 -17 -35 -33 -63 -37 -63
-4 0 -52 7 -107 15 -131 20 -446 20 -576 0 -70 -10 -141 -13 -250 -9 -161 6
-210 16 -648 134 -105 29 -132 32 -315 37 -215 5 -377 -8 -746 -62 -96 -15
-248 -37 -339 -51 -91 -13 -186 -24 -212 -24 -27 0 -48 -4 -48 -10 0 -21 201
-2 556 54 364 56 518 71 744 71 188 -1 215 -3 321 -28 64 -15 154 -39 200 -53
234 -71 307 -85 480 -91 129 -4 192 -2 290 12 101 15 160 17 319 12 109 -4
228 -13 270 -22 128 -26 443 -65 528 -65 26 0 10 -16 -57 -57 -47 -30 -80 -43
-105 -43 -27 0 -34 3 -30 15 8 20 -5 19 -27 -1 -10 -9 -26 -14 -35 -10 -15 6
-15 8 1 26 24 26 2 26 -35 0 -31 -22 -44 -17 -29 11 13 25 1 24 -27 -2 -30
-28 -49 -16 -28 17 25 38 12 38 -33 -1 -64 -55 -84 -47 -32 12 46 53 25 53
-29 0 -33 -33 -59 -49 -83 -53 -54 -8 -572 40 -577 54 -2 7 -15 9 -34 5 -22
-4 -29 -3 -24 5 4 7 1 12 -8 12 -8 0 -18 -5 -22 -12 -5 -7 -11 -5 -21 7 -10
15 -16 16 -25 7 -7 -7 -29 -12 -50 -12 -29 0 -36 3 -32 15 4 8 2 15 -4 15 -5
0 -15 -7 -22 -15 -7 -8 -21 -15 -31 -15 -11 0 -19 7 -19 15 0 21 -12 19 -33
-5 -9 -11 -22 -20 -28 -20 -6 0 -8 8 -4 20 9 28 -10 25 -33 -5 -11 -14 -29
-25 -41 -25 -25 0 -26 7 -4 32 14 15 14 18 1 18 -17 0 -48 -31 -48 -47 0 -12
-23 -23 -47 -23 -12 0 -9 9 12 36 15 19 24 38 21 41 -8 8 -64 -46 -71 -68 -3
-10 -16 -21 -28 -24 -12 -4 -31 -9 -41 -12 -13 -4 -1 15 34 56 78 89 50 89
-34 0 -61 -65 -149 -129 -162 -117 -2 2 35 42 81 88 47 47 85 91 85 100 0 8
-45 -30 -100 -85 -55 -55 -100 -105 -100 -112 0 -7 -9 -17 -20 -23 -15 -8 -56
-3 -173 21 -102 22 -195 34 -282 39 l-130 6 89 87 c49 48 86 90 84 93 -9 8
-100 -69 -158 -133 l-55 -60 -175 -22 c-334 -43 -653 -97 -932 -158 -16 -3
-28 -11 -28 -19 0 -11 7 -11 40 1 52 18 546 108 770 139 424 60 538 63 703 20
141 -36 229 -47 457 -53 194 -6 250 -11 320 -29 47 -12 95 -25 108 -27 12 -3
22 -9 22 -14 0 -16 -97 -72 -202 -118 -113 -48 -152 -79 -169 -131 -15 -45 -6
-118 18 -151 65 -88 255 -148 623 -196 204 -27 342 -72 416 -138 73 -63 64
-95 -35 -123 -511 -146 -684 -205 -868 -297 l-88 -44 -365 -7 c-235 -4 -383
-11 -415 -19 -59 -14 -55 21 -36 -302 7 -121 18 -226 23 -232 6 -7 31 -13 55
-13 25 0 43 -3 41 -7 -2 -5 -24 -52 -50 -105 -70 -147 -72 -155 -65 -302 15
-317 102 -505 328 -713 141 -129 188 -167 197 -158 4 4 -29 39 -73 79 -208
185 -318 319 -365 445 -48 127 -82 394 -61 489 11 55 93 233 118 258 8 7 23
14 33 14 17 0 17 -5 -10 -63 -44 -93 -51 -145 -40 -324 9 -170 17 -208 60
-293 61 -121 226 -303 346 -382 l62 -41 7 -109 c4 -59 11 -111 16 -114 5 -3 9
-11 9 -17 0 -7 -12 1 -26 17 -14 15 -28 26 -31 23 -6 -7 35 -67 45 -67 16 1
29 16 34 40 3 14 9 33 13 44 7 15 5 17 -12 12 -19 -6 -21 -1 -27 106 -28 479
-36 1038 -14 1038 7 0 25 12 40 27 24 23 28 24 28 9 0 -11 -11 -29 -25 -42
-14 -13 -25 -28 -25 -35 0 -8 7 -5 19 5 11 10 24 15 30 12 14 -9 2 -36 -28
-62 -14 -12 -23 -26 -19 -30 5 -4 16 0 26 9 25 23 32 21 32 -9 0 -16 -10 -34
-25 -46 -14 -11 -22 -24 -19 -29 4 -6 13 -4 24 6 12 11 20 13 24 6 9 -14 -9
-47 -29 -55 -8 -3 -15 -12 -15 -21 0 -17 16 -20 25 -5 3 6 10 10 16 10 17 0 9
-24 -18 -53 l-28 -30 28 7 c26 6 28 5 21 -16 -3 -13 -13 -27 -20 -31 -19 -11
-18 -38 1 -31 23 9 19 -29 -5 -44 -29 -18 -25 -36 5 -28 34 9 31 -7 -7 -43
-18 -17 -29 -33 -25 -37 4 -4 15 1 26 10 32 29 37 -2 5 -35 -26 -27 -28 -57
-2 -31 18 18 28 15 28 -8 0 -12 -12 -32 -27 -45 -16 -13 -25 -27 -21 -31 5 -4
17 1 28 11 20 18 20 17 20 -12 0 -22 -7 -36 -25 -47 -14 -9 -23 -22 -19 -27 4
-7 10 -7 17 0 16 16 27 13 27 -7 0 -10 -11 -29 -25 -42 -13 -12 -22 -27 -19
-32 4 -6 11 -5 17 1 31 31 36 -3 5 -36 -23 -25 -18 -44 7 -23 13 11 15 8 15
-16 0 -18 -8 -34 -20 -42 -11 -7 -20 -20 -20 -29 0 -15 2 -15 19 1 17 15 19
15 25 1 10 -28 7 -35 -19 -45 -32 -12 -34 -34 -2 -24 22 7 22 6 3 -15 -21 -23
-15 -41 8 -22 11 9 15 7 20 -14 10 -38 29 -31 24 10 -2 19 0 35 4 35 5 0 37
-26 71 -57 179 -165 430 -373 449 -373 20 0 3 21 -48 60 -65 49 -308 260 -312
271 -6 14 109 29 378 49 163 12 885 76 1025 90 55 6 168 15 250 21 83 5 186
14 229 19 44 6 141 13 215 16 l136 6 210 -80 c116 -44 269 -104 340 -132 72
-29 186 -72 255 -97 69 -24 167 -69 219 -99 51 -29 98 -54 103 -54 58 0 -174
125 -336 180 -65 22 -278 104 -475 182 -355 140 -518 216 -906 424 -99 53
-245 130 -324 170 -286 147 -589 381 -650 503 -39 78 -33 168 19 271 55 107
146 175 415 312 232 117 477 249 523 280 164 113 236 238 199 346 -17 48 -8
54 23 15 27 -34 23 -86 -10 -178 -27 -72 -86 -133 -229 -235 -115 -82 -217
-137 -331 -180 -106 -41 -382 -221 -440 -289 -108 -125 -104 -303 9 -418 116
-120 489 -360 729 -469 53 -24 167 -80 252 -123 221 -114 383 -185 549 -242
80 -28 245 -91 367 -140 123 -49 294 -113 381 -143 87 -30 212 -75 278 -100
128 -49 145 -53 145 -33 0 13 -198 89 -420 161 -74 24 -236 84 -360 133 -124
50 -263 103 -310 118 -224 73 -874 380 -1125 530 -66 40 -152 91 -192 114 -40
23 -122 82 -182 131 -95 78 -114 98 -141 154 -52 106 -40 213 36 313 25 32
310 228 375 257 19 8 70 29 114 46 134 52 325 179 436 289 73 73 96 122 106
226 5 56 3 63 -23 94 -28 34 -133 91 -167 91 -10 0 -71 13 -135 29 -154 39
-315 67 -486 86 -200 22 -443 54 -501 65 -27 5 -104 14 -169 20 -180 16 -254
38 -300 89 -19 21 -19 22 8 50 19 20 61 41 133 66 120 41 148 57 168 95 14 27
15 27 152 34 76 3 165 11 198 16 114 20 282 21 404 5 152 -21 171 -26 336 -95
227 -95 210 -93 845 -87 l375 3 70 28 c39 16 115 51 170 78 92 46 107 51 188
55 129 8 109 25 -25 22 l-113 -3 -155 76 c-85 42 -164 83 -175 91 -19 14 -18
16 13 42 44 37 34 43 -21 11 -54 -32 -61 -32 -53 -1 6 23 5 24 -18 14 -20 -9
-43 -7 -113 11 -117 30 -172 24 -358 -36 l-150 -49 -189 3 c-105 1 -192 5
-195 8 -3 3 17 28 46 55 51 49 52 49 120 49 195 1 767 68 958 113 121 29 306
30 423 3 54 -13 86 -16 92 -10 7 7 -23 18 -88 34 -88 20 -115 22 -238 17 -76
-3 -155 -10 -174 -16 -19 -6 -104 -22 -190 -36 -85 -14 -167 -27 -182 -30 -24
-4 -30 2 -58 53 -136 241 -334 353 -622 351 -57 0 -134 -7 -173 -15z m370 -29
c105 -27 201 -81 274 -154 60 -59 131 -154 147 -194 7 -20 -7 -22 -281 -48
-254 -24 -469 -22 -727 6 -212 22 -210 21 -158 112 67 118 207 236 314 267
131 38 309 43 431 11z m-241 -443 c3 -5 -15 -28 -39 -52 -40 -39 -49 -44 -87
-41 -23 1 -44 4 -46 5 -5 6 140 96 154 96 7 0 15 -4 18 -8z m880 -52 c33 -11
97 -40 141 -65 44 -26 134 -72 201 -104 67 -32 124 -63 128 -69 3 -6 -38 -29
-99 -56 -199 -87 -162 -83 -680 -82 -518 1 -496 -2 -695 86 -48 21 -117 48
-154 59 -77 24 -268 51 -357 51 -32 0 -59 3 -59 8 0 4 44 32 98 62 112 63 67
59 467 44 429 -15 474 -13 580 25 211 76 290 84 429 41z m-2091 -5 c56 -7 177
-19 270 -26 92 -7 167 -17 167 -21 0 -4 -14 -15 -32 -24 -18 -9 -61 -39 -96
-65 -80 -62 -89 -67 -140 -72 -44 -4 -50 1 -30 21 9 9 8 12 -6 12 -10 0 -20
-9 -23 -21 -5 -17 -11 -19 -42 -15 -20 3 -74 8 -121 11 -139 10 -239 25 -345
52 -92 24 -110 25 -256 20 -86 -3 -161 -2 -168 2 -19 12 135 77 238 101 226
51 353 57 584 25z m667 -40 c0 -2 -21 -16 -47 -31 -27 -15 -75 -47 -109 -70
-55 -39 -67 -43 -145 -49 l-84 -7 27 28 c42 45 135 97 207 116 61 16 151 24
151 13z m-727 -185 l38 0 -15 -29 c-16 -30 -63 -54 -190 -97 -86 -30 -136 -66
-136 -100 0 -55 98 -107 235 -124 50 -6 151 -20 225 -31 164 -23 330 -44 510
-63 289 -32 567 -90 676 -142 69 -32 94 -70 94 -139 0 -71 -38 -131 -128 -205
-85 -69 -173 -120 -518 -297 -389 -200 -453 -250 -513 -405 -29 -71 -33 -92
-29 -143 10 -116 75 -204 249 -336 148 -111 357 -248 429 -279 30 -14 98 -48
150 -76 52 -28 178 -95 280 -149 102 -53 189 -100 193 -104 4 -5 -59 -13 -140
-20 -81 -7 -269 -25 -418 -41 -617 -67 -1525 -154 -1530 -148 -1 2 -5 69 -8
149 l-6 147 31 6 c17 3 86 6 154 6 83 0 124 4 124 11 0 8 -47 10 -152 8 l-153
-4 -3 29 c-5 39 10 46 96 46 46 0 71 4 67 10 -3 6 -42 10 -86 10 l-80 0 3 27
c2 23 10 29 48 39 46 12 40 17 -16 14 -20 -1 -33 4 -37 14 -3 8 -4 72 -2 143
1 70 -2 208 -7 306 -7 112 -7 182 -1 188 6 6 122 5 312 -2 166 -6 317 -8 336
-5 l33 7 7 112 c4 61 8 184 8 272 l2 160 -90 7 c-49 4 -139 10 -199 14 -90 5
-106 8 -95 19 23 23 156 71 415 150 286 87 360 114 427 157 57 37 72 67 57
114 -14 40 -78 100 -135 125 -41 18 -189 46 -365 69 -208 27 -427 73 -505 106
-108 45 -162 111 -152 186 8 59 47 103 114 128 93 35 227 108 259 141 25 26
34 30 64 25 19 -3 52 -6 73 -6z m578 -720 c59 -55 66 -78 38 -114 -35 -44
-121 -80 -425 -177 -312 -99 -422 -139 -466 -170 -20 -15 -40 -19 -75 -17
l-48 4 115 56 c125 60 357 140 624 213 230 63 266 80 266 126 0 25 -59 90
-104 114 -20 11 -36 23 -36 26 0 17 68 -20 111 -61z m-736 -520 c121 -6 230
-13 241 -15 17 -4 23 -15 28 -47 8 -53 -11 -449 -21 -459 -5 -5 -127 -3 -273
3 -146 5 -443 11 -660 12 l-395 3 -6 49 c-3 27 -9 137 -13 245 l-7 196 33 8
c39 9 610 23 753 18 55 -1 199 -8 320 -13z m-543 -542 c4 -7 8 -115 8 -239 l0
-226 -67 -6 c-38 -4 -92 -7 -120 -7 -31 0 -53 -4 -53 -11 0 -7 38 -8 120 -3
l120 7 0 -31 c0 -17 -4 -33 -9 -37 -6 -3 -53 -8 -105 -12 -53 -3 -96 -10 -96
-16 0 -6 39 -8 106 -4 l105 5 -3 -47 c-2 -38 -7 -46 -23 -48 -100 -10 -135
-16 -135 -23 0 -4 12 -7 28 -5 15 2 53 6 85 9 l57 6 0 -34 c0 -38 -12 -46 -71
-46 -58 0 -47 -18 14 -22 48 -3 52 -5 55 -30 3 -24 -1 -28 -32 -34 -20 -3 -36
-10 -36 -16 0 -5 15 -6 33 -3 l34 7 6 -63 c9 -79 9 -129 0 -129 -11 0 -117 83
-177 139 -135 128 -232 281 -256 407 -7 36 -10 123 -8 215 3 144 5 158 31 214
52 110 47 108 226 101 108 -4 157 -10 163 -18z m61 -13 c-22 -30 -29 -31 -36
-6 -6 25 0 31 30 31 24 0 24 0 6 -25z m47 -7 c0 -14 -59 -78 -72 -78 -17 0 -7
26 24 57 34 35 48 41 48 21z m2292 -990 c91 -43 107 -58 62 -58 -22 0 -142 -9
-639 -50 -309 -26 -586 -50 -670 -60 -49 -6 -250 -24 -446 -40 -195 -16 -369
-32 -385 -35 -24 -5 -37 1 -74 34 -25 21 -42 42 -38 46 3 4 125 17 270 31 145
13 337 32 428 43 91 11 233 25 315 31 83 6 238 22 345 35 187 23 484 52 600
58 143 8 142 9 232 -35z"/>
<path d="M4280 4491 c0 -11 31 -24 39 -16 3 3 -1 10 -9 15 -19 12 -30 12 -30
1z"/>
<path d="M3715 4480 c-3 -5 -2 -10 4 -10 5 0 13 5 16 10 3 6 2 10 -4 10 -5 0
-13 -4 -16 -10z"/>
<path d="M4370 4440 c0 -5 5 -10 11 -10 5 0 7 5 4 10 -3 6 -8 10 -11 10 -2 0
-4 -4 -4 -10z"/>
<path d="M3635 4429 c-12 -19 5 -23 22 -6 16 16 16 17 1 17 -9 0 -20 -5 -23
-11z"/>
<path d="M3597 4383 c-4 -3 -7 -11 -7 -17 0 -6 5 -5 12 2 6 6 9 14 7 17 -3 3
-9 2 -12 -2z"/>
<path d="M4430 4381 c0 -5 7 -11 15 -15 8 -3 15 -1 15 3 0 5 -7 11 -15 15 -8
3 -15 1 -15 -3z"/>
<path d="M3530 4300 c-7 -13 -7 -20 -1 -20 6 0 15 9 21 20 7 13 7 20 1 20 -6
0 -15 -9 -21 -20z"/>
<path d="M4480 4315 c0 -2 10 -10 23 -16 20 -11 21 -11 8 4 -13 16 -31 23 -31
12z"/>
<path d="M3600 4299 c0 -5 5 -7 10 -4 6 3 10 8 10 11 0 2 -4 4 -10 4 -5 0 -10
-5 -10 -11z"/>
<path d="M3670 4295 c-8 -9 -8 -15 -2 -15 12 0 26 19 19 26 -2 2 -10 -2 -17
-11z"/>
<path d="M4535 4250 c3 -5 14 -10 23 -10 15 0 15 2 2 10 -20 13 -33 13 -25 0z"/>
<path d="M3492 4225 c-6 -14 -7 -25 -2 -25 9 0 25 39 18 46 -3 2 -10 -7 -16
-21z"/>
<path d="M3547 4235 c-4 -8 -2 -17 3 -20 6 -4 10 -4 10 -1 0 2 3 11 6 20 3 9
2 16 -4 16 -5 0 -12 -7 -15 -15z"/>
<path d="M3611 4221 c-7 -12 -7 -22 -2 -26 5 -3 13 4 16 16 9 28 -1 36 -14 10z"/>
<path d="M4510 4205 c7 -9 15 -13 17 -11 7 7 -7 26 -19 26 -6 0 -6 -6 2 -15z"/>
<path d="M4440 4201 c0 -5 5 -13 10 -16 6 -3 10 -2 10 4 0 5 -4 13 -10 16 -5
3 -10 2 -10 -4z"/>
<path d="M4875 3890 c-11 -12 -64 -53 -119 -92 -55 -40 -94 -74 -88 -76 25 -8
242 153 242 180 0 14 -16 9 -35 -12z"/>
<path d="M3822 3854 c-30 -24 -42 -44 -24 -44 4 0 22 13 41 29 43 35 27 49
-17 15z"/>
<path d="M4740 3871 c0 -7 -131 -104 -186 -137 -11 -7 -16 -15 -12 -19 10 -10
154 85 198 130 25 26 30 35 17 35 -9 0 -17 -4 -17 -9z"/>
<path d="M4924 3849 c-16 -17 -62 -53 -101 -81 -40 -28 -70 -54 -67 -59 7 -11
11 -9 99 57 83 61 136 114 114 114 -9 0 -28 -14 -45 -31z"/>
<path d="M4957 3799 c-48 -39 -84 -75 -81 -80 6 -10 12 -6 107 70 37 30 67 61
67 68 0 7 -1 13 -3 13 -1 0 -42 -32 -90 -71z"/>
<path d="M3884 3825 c-21 -19 -33 -34 -26 -35 15 0 82 51 82 63 0 15 -18 6
-56 -28z"/>
<path d="M3962 3820 c-44 -32 -50 -40 -29 -40 15 0 96 69 81 70 -6 0 -30 -14
-52 -30z"/>
<path d="M4053 3814 c-47 -31 -67 -54 -46 -54 16 0 103 66 103 78 0 15 5 17
-57 -24z"/>
<path d="M5028 3780 c-62 -45 -83 -70 -59 -70 13 0 141 100 141 110 0 17 -14
11 -82 -40z"/>
<path d="M4150 3789 c-63 -34 -92 -59 -71 -59 17 0 104 55 121 76 17 19 13 18
-50 -17z"/>
<path d="M4227 3761 c-59 -34 -77 -51 -56 -51 7 0 41 18 74 40 68 45 55 54
-18 11z"/>
<path d="M5092 3767 c-34 -23 -41 -37 -19 -37 15 0 63 47 56 55 -3 2 -19 -6
-37 -18z"/>
<path d="M4482 3748 c-22 -17 -39 -35 -36 -40 7 -11 33 4 63 36 36 38 21 41
-27 4z"/>
<path d="M4313 3744 c-59 -35 -54 -52 5 -19 58 34 71 45 52 45 -8 0 -34 -12
-57 -26z"/>
<path d="M4378 3736 c-29 -21 -22 -39 7 -20 14 9 25 20 25 25 0 13 -12 11 -32
-5z"/>
<path d="M2462 3963 c-58 -34 -76 -53 -52 -53 15 0 120 71 120 81 0 12 1 13
-68 -28z"/>
<path d="M2373 3968 c-31 -18 -43 -38 -25 -38 9 0 82 49 82 55 0 10 -26 2 -57
-17z"/>
<path d="M2537 3952 c-31 -20 -57 -43 -57 -50 0 -15 43 7 93 50 50 41 28 41
-36 0z"/>
<path d="M2597 3924 c-21 -14 -35 -29 -32 -35 8 -12 33 2 64 35 31 33 16 33
-32 0z"/>
<path d="M2675 3905 c-16 -13 -24 -24 -17 -25 17 0 62 30 62 41 0 15 -13 10
-45 -16z"/>
<path d="M2770 3903 c-25 -9 -40 -25 -34 -34 6 -10 64 20 64 33 0 9 -8 9 -30
1z"/>
<path d="M2819 3880 c-14 -11 -18 -19 -11 -20 19 0 52 19 52 30 0 16 -16 12
-41 -10z"/>
<path d="M2618 3793 c12 -2 30 -2 40 0 9 3 -1 5 -23 4 -22 0 -30 -2 -17 -4z"/>
<path d="M2585 3770 c-7 -11 19 -20 34 -10 9 5 7 9 -8 13 -12 3 -23 2 -26 -3z"/>
<path d="M2550 3740 c0 -5 7 -10 16 -10 8 0 12 5 9 10 -3 6 -10 10 -16 10 -5
0 -9 -4 -9 -10z"/>
<path d="M2490 3720 c0 -5 5 -10 11 -10 5 0 7 5 4 10 -3 6 -8 10 -11 10 -2 0
-4 -4 -4 -10z"/>
<path d="M2245 3510 c-8 -13 25 -13 45 0 12 8 9 10 -12 10 -15 0 -30 -4 -33
-10z"/>
<path d="M2293 3482 c-18 -2 -33 -8 -33 -13 0 -8 67 -3 78 6 8 7 -16 10 -45 7z"/>
<path d="M2320 3440 c0 -5 14 -10 30 -10 17 0 30 5 30 10 0 6 -13 10 -30 10
-16 0 -30 -4 -30 -10z"/>
<path d="M2370 3400 c0 -5 6 -10 14 -10 8 0 18 5 21 10 3 6 -3 10 -14 10 -12
0 -21 -4 -21 -10z"/>
<path d="M2440 3380 c0 -5 9 -10 21 -10 11 0 17 5 14 10 -3 6 -13 10 -21 10
-8 0 -14 -4 -14 -10z"/>
<path d="M2485 3350 c3 -5 13 -10 21 -10 8 0 14 5 14 10 0 6 -9 10 -21 10 -11
0 -17 -4 -14 -10z"/>
<path d="M3777 3260 c-54 -10 -61 -24 -7 -16 24 4 46 9 49 11 9 10 -5 11 -42
5z"/>
<path d="M3813 3223 c-18 -2 -33 -8 -33 -12 0 -11 132 -1 145 10 9 9 -48 10
-112 2z"/>
<path d="M3835 3173 c-11 -3 -24 -9 -30 -14 -11 -11 112 -1 155 12 28 8 -90
10 -125 2z"/>
<path d="M3838 3113 c-16 -2 -28 -9 -28 -14 0 -6 12 -8 28 -5 15 3 56 8 91 10
35 3 66 7 69 10 6 7 -117 5 -160 -1z"/>
<path d="M3827 3053 c-39 -10 -4 -18 67 -15 43 2 74 8 71 13 -6 9 -105 11
-138 2z"/>
<path d="M3795 2991 c-7 -12 31 -21 90 -21 32 1 45 4 35 9 -22 12 -119 21
-125 12z"/>
<path d="M3775 2920 c3 -5 24 -10 46 -10 24 0 38 4 34 10 -3 6 -24 10 -46 10
-24 0 -38 -4 -34 -10z"/>
<path d="M3715 2870 c-4 -6 12 -10 42 -9 36 0 43 3 28 9 -28 12 -63 12 -70 0z"/>
<path d="M3664 2821 c7 -11 66 -20 66 -10 0 4 -7 10 -16 13 -24 9 -56 7 -50
-3z"/>
<path d="M3590 2760 c0 -5 12 -10 26 -10 14 0 23 4 19 10 -3 6 -15 10 -26 10
-10 0 -19 -4 -19 -10z"/>
<path d="M3525 2710 c3 -5 15 -10 26 -10 10 0 19 5 19 10 0 6 -12 10 -26 10
-14 0 -23 -4 -19 -10z"/>
<path d="M3460 2670 c0 -5 7 -10 16 -10 8 0 12 5 9 10 -3 6 -10 10 -16 10 -5
0 -9 -4 -9 -10z"/>
<path d="M3948 1173 c17 -2 32 -8 32 -14 0 -5 5 -9 10 -9 6 0 10 7 10 15 0 11
-11 15 -42 13 -37 -1 -39 -2 -10 -5z"/>
<path d="M3848 1161 c19 -12 4 -61 -22 -71 -21 -8 98 -3 142 6 25 5 30 24 7
24 -8 0 -15 7 -15 15 0 11 -8 13 -30 8 -25 -5 -29 -3 -24 11 5 13 -1 16 -32
16 -25 0 -34 -3 -26 -9z m102 -45 c0 -9 -40 -13 -46 -5 -3 5 6 9 20 9 14 0 26
-2 26 -4z"/>
<path d="M3663 1140 c-63 -38 -29 -75 58 -64 31 4 60 15 72 27 l20 20 -24 -6
c-13 -4 -34 -7 -47 -7 -13 0 -20 -4 -17 -10 3 -5 -3 -10 -14 -10 -29 0 -36 18
-15 41 18 20 37 21 77 4 12 -5 17 -3 17 9 0 24 -86 22 -127 -4z"/>
<path d="M3518 1143 c-10 -2 -18 -10 -18 -18 0 -7 -17 -28 -37 -46 -37 -32
-37 -32 -9 -25 27 7 57 29 56 41 0 3 3 4 8 3 4 -2 6 -6 5 -10 -2 -5 2 -8 8 -8
5 0 7 -5 4 -11 -5 -7 3 -9 21 -7 23 2 28 7 26 23 -2 11 -5 30 -5 43 -2 22 -17
26 -59 15z"/>
<path d="M2185 1131 c-3 -5 -1 -12 4 -15 14 -9 211 6 211 16 0 11 -207 10
-215 -1z"/>
<path d="M3393 1134 c-7 -3 -10 -11 -7 -19 9 -23 -15 -55 -41 -55 -30 0 -33
24 -8 52 15 17 14 18 -24 18 -40 0 -40 0 -38 -36 3 -46 18 -54 74 -44 44 8 61
22 61 51 0 9 10 21 23 27 l22 11 -25 0 c-14 -1 -30 -3 -37 -5z"/>
<path d="M3103 1100 c-45 -20 -58 -52 -27 -64 32 -12 112 -6 128 10 23 22 21
24 -26 24 -28 0 -38 -3 -30 -9 11 -7 11 -9 -1 -14 -7 -3 -20 -1 -28 4 -11 6
-11 12 -3 26 9 14 23 18 58 16 30 -1 46 3 46 11 0 20 -71 18 -117 -4z"/>
<path d="M3003 1104 c-7 -3 -9 -12 -6 -20 3 -9 -1 -14 -11 -14 -9 0 -19 7 -22
15 -4 10 -20 15 -46 15 -34 0 -39 -2 -28 -15 9 -11 9 -21 -3 -45 l-15 -30 30
0 c25 0 28 2 19 14 -7 8 -8 17 -3 20 6 3 15 -1 22 -9 7 -8 25 -15 40 -15 28 0
40 15 40 49 0 10 10 23 23 29 l22 11 -25 0 c-14 -1 -30 -3 -37 -5z"/>
<path d="M2740 1080 c-8 -5 -11 -10 -7 -10 5 0 -4 -15 -19 -32 -24 -30 -25
-33 -8 -37 10 -2 20 2 22 8 2 6 16 11 30 11 21 0 24 -2 12 -10 -12 -8 -11 -10
7 -10 40 0 54 10 42 32 -6 11 -9 29 -6 39 4 16 0 19 -26 19 -18 0 -39 -5 -47
-10z m20 -40 c0 -5 -5 -10 -11 -10 -5 0 -7 5 -4 10 3 6 8 10 11 10 2 0 4 -4 4
-10z"/>
<path d="M2303 1061 c-56 -5 -83 -15 -72 -25 8 -7 199 18 199 26 0 9 -29 8
-127 -1z"/>
<path d="M2523 1059 c21 -12 15 -46 -12 -68 -14 -12 -11 -13 24 -7 22 3 63 6
92 6 46 0 51 2 46 20 -6 24 -12 24 -37 5 -30 -23 -56 -19 -56 8 0 13 5 28 12
35 9 9 1 12 -37 12 -40 -1 -46 -3 -32 -11z"/>
<path d="M2055 2448 c-2 -7 -20 -55 -40 -106 -36 -97 -42 -122 -26 -122 5 0
17 22 26 49 16 49 31 61 82 61 16 0 27 -13 47 -55 22 -49 46 -72 46 -45 0 20
-110 230 -120 230 -6 0 -13 -6 -15 -12z m31 -55 c21 -27 16 -43 -11 -43 -27 0
-28 3 -19 38 8 27 13 27 30 5z"/>
<path d="M2245 2452 c-16 -4 -30 -12 -30 -17 1 -34 17 -183 21 -197 11 -37 26
-17 22 30 -5 70 21 69 97 -8 33 -33 63 -60 67 -60 20 0 4 28 -39 72 -44 45
-46 48 -22 48 71 0 94 77 33 112 -35 21 -105 30 -149 20z m133 -42 c17 -11 32
-26 32 -34 0 -20 -64 -38 -120 -34 -41 3 -45 5 -48 31 -6 48 3 57 55 57 30 0
60 -7 81 -20z"/>
<path d="M1601 2437 c-82 -29 -65 -82 38 -121 105 -41 121 -76 35 -76 -31 0
-50 6 -65 21 -13 13 -25 17 -30 12 -15 -15 36 -54 78 -60 57 -7 93 10 93 46 0
33 -19 49 -98 76 -29 11 -59 27 -67 35 -13 15 -13 19 2 32 41 36 128 26 128
-15 0 -23 19 -23 23 0 8 48 -68 76 -137 50z"/>
<path d="M2437 2443 c-17 -16 -3 -23 52 -23 l59 0 0 -45 c0 -45 9 -114 19
-149 3 -11 9 -14 14 -9 6 6 5 29 -1 60 -6 28 -10 71 -8 95 l3 43 78 3 c68 2
77 5 67 17 -10 12 -41 15 -145 15 -72 0 -135 -3 -138 -7z"/>
<path d="M1770 2420 c0 -5 15 -10 34 -10 39 0 46 -11 46 -80 0 -62 10 -110 23
-110 6 0 7 33 3 95 l-7 95 45 0 c25 0 46 5 46 10 0 6 -38 10 -95 10 -57 0 -95
-4 -95 -10z"/>
<path d="M2750 2119 c0 -24 4 -38 10 -34 6 3 10 22 10 41 0 19 -4 34 -10 34
-5 0 -10 -18 -10 -41z"/>
<path d="M2707 2118 c-8 -30 9 -47 18 -18 4 12 3 26 -3 32 -6 6 -11 1 -15 -14z"/>
<path d="M2655 2120 c-4 -6 -2 -17 4 -23 15 -15 25 -2 13 19 -7 12 -11 13 -17
4z"/>
<path d="M2472 2111 c2 -7 7 -12 11 -12 12 1 9 15 -3 20 -7 2 -11 -2 -8 -8z"/>
<path d="M2530 2110 c0 -5 5 -10 11 -10 5 0 7 5 4 10 -3 6 -8 10 -11 10 -2 0
-4 -4 -4 -10z"/>
<path d="M2570 2106 c0 -8 5 -18 10 -21 6 -3 10 3 10 14 0 12 -4 21 -10 21 -5
0 -10 -6 -10 -14z"/>
<path d="M2616 2112 c-3 -6 -1 -14 5 -17 14 -9 20 -2 10 14 -6 8 -11 9 -15 3z"/>
<path d="M1787 1983 c-9 -2 -15 -8 -13 -12 6 -10 86 -1 86 10 0 9 -41 10 -73
2z"/>
<path d="M1763 1923 c-13 -2 -23 -9 -23 -14 0 -11 35 -10 105 1 43 6 45 8 15
9 -19 1 -44 3 -55 5 -11 2 -30 2 -42 -1z"/>
<path d="M1718 1844 c-4 -4 -5 -11 -2 -15 7 -13 221 -11 229 1 4 6 -22 10 -72
10 -43 0 -94 3 -113 6 -19 3 -38 2 -42 -2z"/>
<path d="M1755 1751 c-80 -9 -39 -19 72 -16 107 2 159 15 60 15 -30 0 -61 2
-69 3 -7 2 -35 1 -63 -2z"/>
<path d="M1732 1651 c-11 -7 -11 -9 0 -13 25 -8 228 4 222 13 -7 11 -204 12
-222 0z"/>
<path d="M4578 4539 c-36 -30 -48 -49 -29 -49 10 0 81 64 81 73 0 13 -15 6
-52 -24z"/>
<path d="M3376 4503 c-7 -7 62 -83 76 -83 19 0 5 30 -27 59 -39 34 -39 34 -49
24z"/>
<path d="M5120 4473 c0 -6 61 -13 136 -17 123 -6 156 -4 143 8 -10 9 -279 17
-279 9z"/>
<path d="M2045 4452 c15 -16 500 -29 509 -14 5 9 -21 12 -96 12 -57 0 -175 3
-263 6 -116 5 -157 4 -150 -4z"/>
<path d="M775 4441 c-36 -4 -55 -9 -47 -14 16 -11 222 3 222 14 0 10 -77 9
-175 0z"/>
<path d="M4986 4432 c-3 -5 51 -12 131 -16 121 -6 155 -4 142 8 -10 9 -267 17
-273 8z"/>
<path d="M4693 4389 c-50 -19 -70 -39 -39 -39 22 0 82 28 96 44 16 20 7 19
-57 -5z"/>
<path d="M865 4390 c-7 -12 118 -12 155 0 17 5 -3 8 -62 9 -48 1 -90 -3 -93
-9z"/>
<path d="M2390 4390 c0 -6 53 -10 140 -10 87 0 140 4 140 10 0 6 -53 10 -140
10 -87 0 -140 -4 -140 -10z"/>
<path d="M3244 4301 c6 -9 90 -41 108 -41 4 0 8 4 8 9 0 9 -83 41 -107 41 -8
0 -12 -4 -9 -9z"/>
<path d="M4734 4271 c-16 -16 2 -23 49 -17 75 10 85 27 14 24 -32 -1 -60 -4
-63 -7z"/>
<path d="M1699 4150 c-81 -74 -114 -114 -104 -130 4 -6 22 9 41 32 19 24 60
66 91 94 31 27 54 55 52 61 -2 7 -38 -19 -80 -57z"/>
<path d="M1602 4129 c-86 -76 -105 -99 -82 -99 12 0 166 140 174 159 14 30 -4
18 -92 -60z"/>
<path d="M1757 4107 c-101 -96 -119 -117 -99 -117 10 0 222 205 222 214 0 16
-24 -3 -123 -97z"/>
<path d="M1856 4098 c-98 -96 -133 -138 -112 -138 7 0 231 230 234 240 7 20
-8 7 -122 -102z"/>
<path d="M1505 4120 c-49 -44 -92 -88 -93 -96 -2 -9 42 23 97 72 93 82 113
104 94 104 -5 0 -48 -36 -98 -80z"/>
<path d="M1129 4081 c-52 -49 -91 -92 -87 -96 7 -7 187 157 196 177 11 25 -25
-2 -109 -81z"/>
<path d="M1239 4083 c-51 -50 -88 -93 -82 -96 12 -7 190 170 180 179 -4 4 -48
-33 -98 -83z"/>
<path d="M1933 4070 c-93 -89 -118 -120 -96 -120 10 0 213 203 213 212 0 18
-20 2 -117 -92z"/>
<path d="M921 4070 c-88 -79 -122 -120 -92 -108 18 7 204 188 199 194 -4 3
-52 -35 -107 -86z"/>
<path d="M1015 4070 c-49 -49 -86 -93 -82 -97 10 -9 180 162 176 176 -2 6 -44
-29 -94 -79z"/>
<path d="M780 4118 c-137 -120 -219 -201 -214 -209 5 -8 47 28 238 203 50 45
27 51 -24 6z"/>
<path d="M810 4053 c-93 -85 -126 -123 -105 -123 9 0 219 199 223 211 9 23
-22 0 -118 -88z"/>
<path d="M3245 4100 c-22 -22 -25 -30 -13 -30 9 0 26 14 38 30 12 17 17 30 13
30 -5 0 -22 -13 -38 -30z"/>
<path d="M3313 4086 c-26 -24 -45 -47 -41 -51 4 -4 31 16 60 44 65 62 49 68
-19 7z"/>
<path d="M520 4042 c-143 -126 -170 -153 -164 -164 3 -5 38 21 78 59 40 37 99
91 131 119 33 27 55 53 50 56 -6 3 -48 -28 -95 -70z"/>
<path d="M578 4014 c-60 -52 -108 -100 -108 -105 0 -16 16 -10 41 17 13 14 61
57 107 96 75 64 95 88 75 88 -5 0 -56 -43 -115 -96z"/>
<path d="M373 3994 c-62 -53 -110 -100 -107 -106 3 -5 29 12 57 37 29 25 82
70 120 101 37 30 67 57 67 59 0 19 -40 -8 -137 -91z"/>
<path d="M5279 4037 c-41 -30 -84 -59 -96 -66 -24 -12 -31 -31 -12 -31 12 0
110 66 159 108 61 52 26 44 -51 -11z"/>
<path d="M300 4004 c-44 -42 -77 -81 -74 -86 5 -8 164 134 172 154 11 26 -28
-2 -98 -68z"/>
<path d="M5084 4048 c-27 -17 -44 -33 -37 -35 13 -5 93 45 93 58 0 13 -1 12
-56 -23z"/>
<path d="M5170 4043 c-30 -19 -61 -38 -69 -42 -7 -5 -12 -14 -10 -20 3 -8 33
6 82 38 42 28 77 53 77 56 0 12 -29 1 -80 -32z"/>
<path d="M265 4030 c-25 -25 -33 -40 -24 -40 19 0 84 66 71 73 -5 4 -26 -12
-47 -33z"/>
<path d="M5327 3999 c-87 -64 -113 -89 -89 -89 12 0 196 139 200 150 7 21 -17
7 -111 -61z"/>
<path d="M5415 3984 c-97 -72 -119 -94 -95 -94 12 0 205 143 215 160 17 27
-29 2 -120 -66z"/>
<path d="M5476 3936 c-32 -29 -57 -58 -55 -64 4 -11 129 94 129 109 0 17 -15
8 -74 -45z"/>
<path d="M5542 3905 c-25 -18 -29 -35 -8 -35 17 0 39 26 34 40 -2 6 -12 4 -26
-5z"/>
<path d="M1715 3727 c-108 -90 -131 -114 -121 -124 3 -4 28 14 54 39 26 25 79
71 117 103 39 32 72 60 74 61 2 2 -2 4 -10 4 -8 0 -59 -38 -114 -83z"/>
<path d="M1663 3773 c-64 -44 -176 -150 -165 -156 5 -4 40 22 78 56 38 34 87
76 109 94 49 40 33 43 -22 6z"/>
<path d="M1874 3769 c-68 -54 -177 -163 -166 -167 6 -2 30 16 54 40 24 24 72
69 108 101 68 59 71 79 4 26z"/>
<path d="M1945 3728 c-69 -54 -144 -131 -139 -140 4 -5 36 19 73 54 36 35 82
75 101 90 21 16 29 27 20 28 -9 0 -33 -14 -55 -32z"/>
<path d="M1535 3731 c-46 -29 -141 -118 -134 -126 6 -5 99 68 169 132 21 19 0
16 -35 -6z"/>
<path d="M1992 3670 c-45 -39 -80 -75 -77 -81 5 -7 175 136 175 148 0 12 -25
-5 -98 -67z"/>
<path d="M2083 3687 c-34 -29 -62 -55 -62 -59 -2 -21 27 -2 82 52 76 73 64 78
-20 7z"/>
<path d="M2315 3730 c-3 -5 1 -10 9 -10 8 0 18 5 21 10 3 6 -1 10 -9 10 -8 0
-18 -4 -21 -10z"/>
<path d="M2160 3691 c-25 -21 -41 -43 -37 -47 4 -4 29 13 55 39 57 57 45 62
-18 8z"/>
<path d="M2235 3700 c-10 -11 -15 -23 -12 -27 8 -7 47 25 47 39 0 14 -16 9
-35 -12z"/>
<path d="M1356 3663 c-33 -26 -54 -49 -48 -51 7 -2 39 19 73 47 76 64 55 67
-25 4z"/>
<path d="M1200 3680 c-8 -5 -11 -12 -8 -15 4 -4 17 0 30 9 24 17 5 23 -22 6z"/>
<path d="M1253 3659 c-36 -23 -40 -29 -20 -29 14 0 76 49 62 49 -5 1 -25 -9
-42 -20z"/>
<path d="M319 3617 c-14 -12 -67 -56 -117 -97 -51 -41 -92 -78 -92 -82 0 -17
28 -7 51 18 13 14 63 58 112 97 79 64 101 88 80 87 -5 0 -20 -11 -34 -23z"/>
<path d="M3701 3569 c-82 -65 -105 -89 -83 -89 4 0 34 24 68 53 33 28 76 64
95 79 19 15 29 27 22 28 -6 0 -52 -32 -102 -71z"/>
<path d="M3805 3563 c-54 -42 -92 -79 -86 -81 12 -4 81 46 161 117 78 69 26
44 -75 -36z"/>
<path d="M3970 3599 c-54 -33 -170 -133 -170 -146 0 -20 6 -16 57 32 26 25 72
62 101 82 28 20 52 40 52 45 0 11 0 11 -40 -13z"/>
<path d="M5242 3575 c-57 -41 -76 -65 -53 -65 9 0 131 98 131 106 0 11 -22 0
-78 -41z"/>
<path d="M402 3509 c-67 -56 -122 -106 -122 -110 0 -19 21 -7 82 49 35 31 88
77 118 101 30 25 59 48 65 53 5 5 3 8 -6 8 -9 0 -70 -46 -137 -101z"/>
<path d="M3572 3550 c-51 -32 -92 -64 -92 -70 0 -16 6 -13 88 42 105 70 128
88 111 88 -8 0 -56 -27 -107 -60z"/>
<path d="M165 3565 c-21 -20 -35 -38 -31 -42 7 -7 78 47 84 65 7 22 -13 13
-53 -23z"/>
<path d="M405 3590 c-5 -8 -165 -134 -273 -216 -10 -7 -11 -13 -5 -17 11 -7
281 201 296 228 9 17 -8 21 -18 5z"/>
<path d="M510 3531 c-93 -74 -127 -108 -117 -117 5 -6 35 18 176 143 68 60 26
41 -59 -26z"/>
<path d="M3051 3571 c-19 -15 -30 -31 -24 -34 6 -4 28 9 49 28 47 41 24 47
-25 6z"/>
<path d="M3253 3559 c-35 -23 -63 -46 -63 -51 0 -13 6 -10 78 37 56 36 75 55
55 55 -5 0 -36 -19 -70 -41z"/>
<path d="M3448 3555 c-36 -24 -69 -49 -73 -55 -10 -16 21 -12 35 5 7 9 39 32
71 52 33 20 59 37 59 39 0 13 -34 -2 -92 -41z"/>
<path d="M4980 3568 c-23 -18 -38 -34 -32 -36 13 -4 82 46 82 59 0 13 -2 12
-50 -23z"/>
<path d="M5147 3564 c-26 -19 -45 -39 -42 -45 6 -9 104 59 105 74 0 13 -15 7
-63 -29z"/>
<path d="M5328 3569 c-27 -17 -48 -38 -48 -46 0 -16 5 -13 68 32 39 28 52 45
35 45 -5 0 -29 -14 -55 -31z"/>
<path d="M586 3516 c-44 -40 -75 -75 -70 -79 10 -6 154 129 154 144 0 13 1 14
-84 -65z"/>
<path d="M3131 3558 c-25 -18 -40 -33 -33 -36 10 -3 102 55 102 65 0 11 -31
-2 -69 -29z"/>
<path d="M3340 3548 c-36 -22 -60 -43 -53 -45 6 -2 42 16 80 41 85 57 62 61
-27 4z"/>
<path d="M5056 3554 c-25 -19 -44 -40 -41 -45 7 -10 95 57 95 72 0 14 -3 12
-54 -27z"/>
<path d="M5396 3545 c-21 -19 -36 -39 -34 -45 2 -7 23 6 48 27 24 22 39 42 34
45 -5 3 -26 -9 -48 -27z"/>
<path d="M3971 3513 c-65 -51 -84 -73 -63 -73 4 0 36 25 72 56 87 75 86 74 73
74 -5 0 -42 -25 -82 -57z"/>
<path d="M672 3506 c-26 -25 -43 -48 -39 -52 4 -5 31 15 60 44 63 63 45 70
-21 8z"/>
<path d="M5466 3527 c-16 -13 -25 -27 -19 -30 5 -3 23 7 38 23 34 36 22 40
-19 7z"/>
<path d="M771 3511 c-19 -15 -32 -33 -30 -39 2 -7 23 5 49 28 51 44 34 55 -19
11z"/>
<path d="M843 3523 c-22 -15 -32 -43 -15 -43 5 0 21 14 37 30 31 32 17 41 -22
13z"/>
<path d="M915 3516 c-16 -13 -26 -28 -22 -32 4 -4 22 6 40 24 37 37 25 43 -18
8z"/>
<path d="M994 3516 c-10 -8 -15 -18 -11 -22 4 -4 17 2 30 14 24 25 12 30 -19
8z"/>
<path d="M1074 3516 c-10 -8 -16 -17 -12 -21 8 -8 48 13 48 25 0 14 -13 12
-36 -4z"/>
<path d="M4042 3479 c-47 -36 -65 -59 -44 -59 12 1 107 88 102 93 -3 3 -29
-12 -58 -34z"/>
<path d="M1155 3500 c-8 -13 5 -13 25 0 13 8 13 10 -2 10 -9 0 -20 -4 -23 -10z"/>
<path d="M1257 3503 c-10 -9 -9 -23 2 -23 5 0 11 7 15 15 5 15 -5 20 -17 8z"/>
<path d="M5520 3495 c-18 -21 -3 -32 16 -13 10 9 12 18 6 22 -5 3 -15 -1 -22
-9z"/>
<path d="M1346 3491 c-4 -7 -5 -15 -2 -18 9 -9 19 4 14 18 -4 11 -6 11 -12 0z"/>
<path d="M5585 3481 c-6 -11 9 -23 19 -14 9 9 7 23 -3 23 -6 0 -12 -4 -16 -9z"/>
<path d="M4102 3454 c-23 -14 -42 -29 -42 -35 0 -16 17 -10 52 18 18 15 35 28
37 30 2 2 2 5 0 8 -3 2 -24 -7 -47 -21z"/>
<path d="M1490 3451 c0 -6 5 -13 10 -16 6 -3 10 1 10 9 0 9 -4 16 -10 16 -5 0
-10 -4 -10 -9z"/>
<path d="M1530 3450 c0 -5 5 -10 10 -10 6 0 10 5 10 10 0 6 -4 10 -10 10 -5 0
-10 -4 -10 -10z"/>
<path d="M1570 3450 c0 -5 5 -10 10 -10 6 0 10 5 10 10 0 6 -4 10 -10 10 -5 0
-10 -4 -10 -10z"/>
<path d="M4180 3429 c-43 -26 -45 -28 -37 -35 8 -8 77 34 77 47 0 12 0 12 -40
-12z"/>
<path d="M4255 3405 c-20 -16 -25 -24 -14 -25 8 0 26 11 39 25 30 32 14 32
-25 0z"/>
<path d="M5140 3413 c0 -12 5 -25 10 -28 13 -8 13 15 0 35 -8 12 -10 11 -10
-7z"/>
<path d="M4335 3397 c-10 -8 -14 -17 -9 -20 5 -3 21 3 34 14 29 22 6 28 -25 6z"/>
<path d="M4542 3388 c-34 -22 -39 -28 -19 -28 14 1 62 38 56 45 -3 2 -19 -5
-37 -17z"/>
<path d="M4603 3385 c-37 -33 -8 -33 32 0 22 18 25 25 13 25 -9 0 -30 -11 -45
-25z"/>
<path d="M5175 3400 c-3 -5 -1 -10 4 -10 6 0 11 5 11 10 0 6 -2 10 -4 10 -3 0
-8 -4 -11 -10z"/>
<path d="M4409 3381 c-13 -11 -19 -20 -13 -21 15 0 50 27 43 34 -3 4 -17 -2
-30 -13z"/>
<path d="M4693 3393 c-14 -5 -18 -23 -5 -23 5 0 17 7 28 15 14 11 15 14 4 14
-8 0 -21 -3 -27 -6z"/>
<path d="M821 3260 c-100 -91 -126 -121 -103 -120 13 1 227 208 221 215 -4 3
-57 -40 -118 -95z"/>
<path d="M764 3297 c-21 -23 -59 -60 -83 -81 -26 -24 -39 -42 -32 -44 7 -2 22
6 33 19 12 13 46 50 76 81 31 32 54 60 51 63 -3 3 -23 -14 -45 -38z"/>
<path d="M896 3229 c-76 -71 -105 -108 -77 -97 22 8 192 178 178 178 -9 0 -54
-36 -101 -81z"/>
<path d="M5045 3235 c-38 -30 -71 -59 -74 -66 -5 -15 7 -8 89 54 84 64 87 67
70 66 -8 0 -46 -24 -85 -54z"/>
<path d="M5150 3243 c-30 -25 -57 -52 -58 -60 -5 -21 21 -4 88 56 69 63 44 66
-30 4z"/>
<path d="M622 3254 c-30 -24 -42 -45 -24 -44 4 1 22 14 40 29 42 36 28 49 -16
15z"/>
<path d="M977 3203 c-68 -67 -94 -102 -69 -91 14 5 155 158 151 163 -3 2 -39
-30 -82 -72z"/>
<path d="M1855 3259 c-4 -6 0 -18 9 -27 15 -15 16 -15 16 5 0 25 -15 38 -25
22z"/>
<path d="M1897 3256 c-6 -16 2 -28 14 -20 12 7 11 34 0 34 -5 0 -11 -6 -14
-14z"/>
<path d="M4470 3254 c0 -12 7 -25 16 -28 18 -7 34 0 34 15 0 6 -5 7 -11 4 -6
-4 -17 1 -24 11 -14 18 -14 18 -15 -2z"/>
<path d="M4960 3234 c-25 -20 -54 -42 -64 -50 -11 -7 -17 -17 -13 -20 6 -7
104 64 128 92 21 26 -5 14 -51 -22z"/>
<path d="M1078 3201 c-35 -33 -59 -63 -55 -67 4 -4 38 22 75 59 82 83 66 89
-20 8z"/>
<path d="M1935 3251 c-3 -5 -1 -12 5 -16 5 -3 10 1 10 9 0 18 -6 21 -15 7z"/>
<path d="M4545 3249 c-4 -6 -5 -13 -2 -16 7 -7 27 6 27 18 0 12 -17 12 -25 -2z"/>
<path d="M5229 3220 c-52 -39 -70 -60 -52 -60 4 0 34 23 66 50 70 60 62 66
-14 10z"/>
<path d="M4828 3202 c-47 -37 -64 -61 -30 -43 26 14 98 80 87 80 -5 0 -31 -17
-57 -37z"/>
<path d="M5302 3210 c-39 -28 -54 -50 -33 -50 13 0 98 79 85 80 -6 0 -30 -14
-52 -30z"/>
<path d="M1177 3184 c-37 -26 -64 -50 -62 -55 5 -7 145 87 145 97 0 11 -23 0
-83 -42z"/>
<path d="M4733 3187 c-23 -18 -42 -35 -43 -39 0 -17 19 -6 61 32 53 47 41 52
-18 7z"/>
<path d="M1272 3180 c-23 -17 -42 -35 -42 -40 0 -16 6 -13 57 26 61 46 59 44
41 44 -8 0 -34 -14 -56 -30z"/>
<path d="M5365 3185 c-25 -24 -32 -45 -17 -45 4 0 23 16 42 35 26 27 30 35 17
35 -10 0 -29 -11 -42 -25z"/>
<path d="M1375 3172 c-16 -11 -36 -26 -44 -35 -25 -31 11 -19 54 18 43 38 38
46 -10 17z"/>
<path d="M292 3159 c4 -31 35 -49 48 -29 15 23 13 47 -2 32 -16 -16 -28 -15
-28 3 0 8 -5 15 -11 15 -6 0 -9 -10 -7 -21z"/>
<path d="M1425 3145 c-19 -16 -24 -25 -15 -25 8 0 29 11 45 25 19 15 24 24 15
24 -8 0 -28 -11 -45 -24z"/>
<path d="M5434 3153 c-11 -12 -13 -18 -5 -21 13 -4 41 16 41 29 0 14 -17 10
-36 -8z"/>
<path d="M376 3151 c-4 -7 -5 -15 -2 -18 9 -9 19 4 14 18 -4 11 -6 11 -12 0z"/>
<path d="M1523 3148 c-21 -10 -38 -36 -29 -45 2 -2 19 9 38 26 34 31 30 38 -9
19z"/>
<path d="M2632 3128 c-39 -30 -52 -48 -34 -48 13 0 87 68 81 74 -3 3 -24 -9
-47 -26z"/>
<path d="M1595 3110 c-16 -17 -24 -30 -19 -30 13 0 59 48 52 55 -2 3 -17 -9
-33 -25z"/>
<path d="M1761 3114 c-11 -15 -18 -31 -15 -36 7 -10 41 17 55 44 16 29 -16 22
-40 -8z"/>
<path d="M1852 3117 c-24 -26 -28 -37 -11 -37 11 0 48 40 49 53 0 14 -17 7
-38 -16z"/>
<path d="M2705 3120 c-10 -12 -34 -30 -52 -41 -33 -21 -43 -39 -20 -39 19 1
125 99 106 100 -9 0 -24 -9 -34 -20z"/>
<path d="M1675 3105 c-29 -24 -28 -48 2 -29 20 13 49 54 37 54 -5 -1 -22 -12
-39 -25z"/>
<path d="M1918 3119 c-10 -6 -18 -20 -18 -32 l0 -21 21 21 c25 25 23 47 -3 32z"/>
<path d="M2761 3100 c-23 -17 -39 -35 -36 -41 6 -9 77 39 90 62 12 18 -13 8
-54 -21z"/>
<path d="M5531 3116 c-8 -9 -11 -19 -7 -23 9 -9 29 13 24 27 -2 8 -8 7 -17 -4z"/>
<path d="M1981 3097 c-6 -8 -8 -17 -4 -20 7 -8 33 11 33 24 0 13 -16 11 -29
-4z"/>
<path d="M2824 3086 c-16 -13 -26 -27 -23 -31 4 -3 20 5 35 19 16 13 26 27 23
31 -4 3 -20 -5 -35 -19z"/>
<path d="M2060 3089 c0 -5 5 -7 10 -4 6 3 10 8 10 11 0 2 -4 4 -10 4 -5 0 -10
-5 -10 -11z"/>
<path d="M2884 3076 c-22 -17 -11 -35 13 -20 19 12 29 34 16 34 -5 0 -18 -6
-29 -14z"/>
<path d="M2970 3060 c-8 -5 -11 -12 -7 -16 4 -4 15 0 24 9 18 18 8 23 -17 7z"/>
<path d="M3070 3060 c0 -5 5 -10 11 -10 5 0 7 5 4 10 -3 6 -8 10 -11 10 -2 0
-4 -4 -4 -10z"/>
<path d="M2342 3013 c4 -36 41 -44 58 -13 15 29 2 40 -16 15 -14 -19 -15 -19
-20 3 -9 31 -26 27 -22 -5z"/>
<path d="M2426 3011 c-11 -12 -13 -21 -7 -25 5 -4 15 3 21 15 15 28 7 34 -14
10z"/>
<path d="M4334 2936 c-38 -33 -43 -53 -11 -40 19 7 72 74 59 74 -5 0 -26 -15
-48 -34z"/>
<path d="M1450 2942 c0 -10 7 -27 15 -38 14 -19 15 -18 34 6 20 25 18 51 -2
31 -15 -15 -27 -14 -27 4 0 8 -4 15 -10 15 -5 0 -10 -8 -10 -18z"/>
<path d="M4395 2925 c-16 -13 -26 -27 -23 -30 8 -9 39 8 62 34 27 30 -1 27
-39 -4z"/>
<path d="M1534 2926 c-10 -8 -15 -18 -11 -22 4 -4 15 0 24 9 22 21 12 31 -13
13z"/>
<path d="M4465 2903 c-27 -20 -44 -38 -38 -40 10 -4 113 63 113 73 0 13 -31
-1 -75 -33z"/>
<path d="M4563 2899 c-40 -28 -55 -49 -34 -49 5 0 28 18 52 40 52 46 42 52
-18 9z"/>
<path d="M634 2886 c3 -22 11 -43 18 -47 20 -13 20 -5 -2 42 l-20 44 4 -39z"/>
<path d="M692 2888 c-14 -14 -16 -48 -3 -48 8 0 23 51 17 57 -1 2 -8 -3 -14
-9z"/>
<path d="M4628 2871 c-20 -19 -27 -30 -18 -30 22 0 74 45 62 53 -6 4 -26 -7
-44 -23z"/>
<path d="M140 2882 c0 -5 14 -28 31 -52 28 -39 32 -41 42 -25 11 21 16 85 5
85 -3 0 -10 -12 -15 -27 l-10 -28 -17 28 c-18 26 -36 36 -36 19z"/>
<path d="M4692 2864 c-30 -21 -17 -38 14 -18 23 16 32 34 16 34 -4 0 -18 -7
-30 -16z"/>
<path d="M4770 2855 c-7 -9 -11 -18 -8 -20 7 -8 38 5 38 15 0 17 -18 19 -30 5z"/>
<path d="M727 2845 c-9 -23 11 -28 23 -5 8 16 8 20 -4 20 -7 0 -16 -7 -19 -15z"/>
<path d="M4847 2853 c-4 -3 -7 -13 -7 -21 0 -12 3 -12 15 -2 8 7 15 16 15 21
0 11 -14 12 -23 2z"/>
<path d="M245 2829 c-4 -11 -4 -23 0 -27 7 -7 25 17 25 36 0 20 -18 14 -25 -9z"/>
<path d="M1941 2818 c-1 -21 4 -38 9 -38 12 0 12 27 0 55 -7 16 -9 13 -9 -17z"/>
<path d="M1993 2828 c-20 -26 -23 -37 -14 -43 6 -3 17 8 26 25 15 29 7 42 -12
18z"/>
<path d="M4925 2831 c-10 -17 12 -21 25 -6 10 12 10 15 -3 15 -9 0 -18 -4 -22
-9z"/>
<path d="M2030 2815 c-22 -27 -5 -37 19 -11 19 20 21 26 9 26 -9 0 -21 -7 -28
-15z"/>
<path d="M5110 2798 c0 -18 18 -34 28 -24 3 4 -2 14 -11 23 -16 16 -17 16 -17
1z"/>
<path d="M5155 2801 c-3 -5 -1 -12 5 -16 5 -3 10 -3 10 1 0 3 6 1 14 -5 16
-13 32 2 21 19 -8 13 -42 13 -50 1z"/>
<path d="M4220 2771 c0 -7 7 -25 15 -41 25 -47 65 -36 65 18 0 13 -5 12 -19
-7 -18 -24 -19 -24 -25 -4 -8 26 -36 52 -36 34z"/>
<path d="M1134 2728 c7 -34 36 -74 36 -50 0 18 -28 82 -36 82 -3 0 -4 -15 0
-32z"/>
<path d="M1192 2721 c-5 -15 -7 -34 -2 -41 5 -8 9 -4 14 13 3 14 9 32 12 41 3
9 2 16 -4 16 -6 0 -15 -13 -20 -29z"/>
<path d="M4322 2728 c-6 -6 -12 -19 -12 -27 0 -13 2 -13 16 1 9 9 15 21 13 27
-3 9 -8 8 -17 -1z"/>
<path d="M1230 2695 c-7 -9 -10 -18 -7 -22 8 -7 37 15 37 28 0 14 -16 11 -30
-6z"/>
<path d="M5447 2583 c-8 -13 22 -103 34 -103 5 0 12 8 15 18 3 9 12 30 20 46
19 37 8 48 -17 17 -22 -26 -24 -26 -37 9 -5 13 -12 19 -15 13z"/>
<path d="M4915 2567 c-5 -12 -2 -24 9 -35 15 -15 18 -15 38 6 12 12 19 25 15
29 -4 3 -13 1 -19 -5 -17 -17 -26 -15 -31 6 -4 16 -4 16 -12 -1z"/>
<path d="M4986 2544 c-10 -25 -1 -27 19 -4 15 17 16 20 3 20 -9 0 -19 -7 -22
-16z"/>
<path d="M5540 2520 c-21 -21 -26 -40 -12 -40 10 0 52 43 52 53 0 13 -20 7
-40 -13z"/>
<path d="M4252 2495 c-23 -29 -29 -60 -12 -70 6 -3 10 2 10 12 0 10 7 29 16
41 24 34 11 49 -14 17z"/>
<path d="M420 2499 c0 -20 41 -79 55 -79 18 0 21 7 29 55 l6 40 -17 -32 c-21
-41 -27 -41 -43 -3 -12 30 -30 41 -30 19z"/>
<path d="M4184 2470 c7 -43 20 -69 30 -59 7 6 -17 85 -28 96 -5 4 -6 -11 -2
-37z"/>
<path d="M537 2482 c-18 -19 -23 -52 -9 -52 5 0 16 16 25 35 18 38 10 46 -16
17z"/>
<path d="M4301 2464 c-11 -15 -18 -31 -14 -37 6 -10 53 39 53 56 0 15 -19 6
-39 -19z"/>
<path d="M920 2390 c-14 -34 -30 -40 -30 -11 0 11 -5 23 -11 27 -14 8 -2 -54
13 -74 13 -16 34 0 41 31 2 12 8 30 12 40 4 9 3 17 -3 17 -5 0 -15 -13 -22
-30z"/>
<path d="M956 2354 c-17 -17 -20 -27 -10 -37 6 -6 44 35 44 47 0 11 -19 6 -34
-10z"/>
<path d="M3804 2267 c-10 -27 -9 -70 2 -74 8 -2 13 13 16 42 3 43 -7 61 -18
32z"/>
<path d="M3738 2264 c-8 -7 22 -74 34 -74 12 0 9 11 -10 48 -10 18 -21 30 -24
26z"/>
<path d="M3851 2227 c-21 -23 -28 -47 -13 -47 13 0 53 58 43 64 -4 3 -18 -5
-30 -17z"/>
<path d="M4800 2193 c0 -36 21 -66 41 -58 15 6 43 65 34 73 -9 9 -35 -21 -35
-40 0 -10 -4 -16 -10 -13 -5 3 -10 17 -10 30 0 13 -4 27 -10 30 -6 4 -10 -6
-10 -22z"/>
<path d="M4907 2172 c-26 -28 -22 -52 4 -25 12 11 20 26 17 33 -2 7 -9 5 -21
-8z"/>
<path d="M282 2118 c14 -26 32 -44 44 -46 19 -3 22 2 22 42 1 26 -1 46 -3 46
-2 0 -11 -12 -18 -27 l-14 -26 -18 26 c-28 43 -39 31 -13 -15z"/>
<path d="M5424 2147 c3 -10 9 -37 12 -59 l7 -40 -27 17 c-35 23 -33 7 3 -33
33 -35 71 -43 71 -14 0 9 11 34 25 55 31 45 22 48 -21 6 l-32 -31 -7 40 c-3
22 -13 48 -22 59 -14 17 -14 17 -9 0z"/>
<path d="M1157 2078 c3 -24 10 -49 16 -55 14 -19 37 -16 37 6 0 10 9 30 21 45
13 17 16 26 8 26 -7 0 -23 -12 -35 -27 l-22 -28 -7 38 c-10 51 -24 47 -18 -5z"/>
<path d="M4310 2093 c0 -16 7 -38 15 -49 15 -19 15 -19 35 5 11 13 20 31 20
40 -1 13 -4 12 -19 -6 -20 -24 -31 -21 -31 8 0 10 -4 21 -10 24 -6 4 -10 -6
-10 -22z"/>
<path d="M377 2103 c-10 -9 -9 -43 1 -43 5 0 14 11 20 25 9 20 9 25 -2 25 -7
0 -16 -3 -19 -7z"/>
<path d="M742 2058 c-5 -7 -17 -29 -27 -47 l-18 -35 -20 40 c-23 47 -25 49
-33 41 -7 -7 46 -127 56 -127 9 0 27 38 35 75 4 17 14 38 22 48 9 9 11 17 6
17 -6 0 -15 -6 -21 -12z"/>
<path d="M4393 2055 c-10 -27 6 -30 30 -7 l21 22 -22 0 c-12 0 -25 -7 -29 -15z"/>
<path d="M1257 2042 c-18 -20 -22 -42 -8 -42 8 0 41 43 41 55 0 11 -18 4 -33
-13z"/>
<path d="M5536 2021 c-15 -16 -23 -31 -18 -35 5 -3 24 10 42 29 22 23 29 35
19 35 -8 0 -28 -13 -43 -29z"/>
<path d="M766 1989 c-28 -33 -31 -44 -16 -54 6 -3 10 -2 10 4 0 6 14 26 31 46
22 24 26 35 16 35 -8 0 -27 -14 -41 -31z"/>
<path d="M3360 1980 c0 -23 53 -124 57 -108 2 9 -7 39 -22 67 -24 49 -35 62
-35 41z"/>
<path d="M3451 1959 c-13 -39 -14 -79 -2 -79 5 0 11 17 13 38 3 20 8 45 12 55
5 10 4 17 -2 17 -6 0 -15 -14 -21 -31z"/>
<path d="M3506 1918 c-13 -18 -22 -36 -19 -42 7 -11 53 43 53 62 0 19 -6 15
-34 -20z"/>
<path d="M130 1843 c0 -15 45 -87 56 -90 7 -2 13 12 16 37 4 42 0 48 -19 29
-8 -8 -15 -6 -25 10 -13 21 -28 28 -28 14z"/>
<path d="M4860 1821 c0 -27 23 -101 31 -101 12 0 11 20 -2 61 -13 38 -29 60
-29 40z"/>
<path d="M4926 1808 c-18 -25 -22 -78 -6 -78 6 0 10 9 10 20 0 12 7 34 15 50
18 35 3 40 -19 8z"/>
<path d="M227 1790 c-18 -26 -22 -50 -9 -50 13 0 35 46 30 61 -3 8 -10 5 -21
-11z"/>
<path d="M971 1784 c-1 -31 28 -111 46 -126 14 -11 16 -10 9 14 -12 49 -54
135 -55 112z"/>
<path d="M1071 1770 c-27 -44 -35 -75 -26 -97 6 -14 10 -10 15 19 4 20 14 48
24 63 9 14 15 32 13 38 -2 7 -14 -4 -26 -23z"/>
<path d="M4084 1767 c11 -44 36 -97 47 -97 12 0 4 29 -22 83 -22 42 -34 49
-25 14z"/>
<path d="M5009 1773 c-30 -21 -48 -44 -49 -60 0 -22 14 -14 49 28 37 45 37 57
0 32z"/>
<path d="M4166 1746 c-17 -36 -20 -59 -9 -69 3 -4 14 17 24 46 22 62 21 57 10
57 -5 0 -16 -15 -25 -34z"/>
<path d="M4221 1724 c-33 -42 -27 -63 9 -29 29 28 39 55 21 55 -5 0 -19 -12
-30 -26z"/>
<path d="M1127 1719 c-20 -11 -51 -68 -43 -77 3 -3 7 -3 9 -1 1 2 17 23 35 47
33 42 33 51 -1 31z"/>
<path d="M498 1633 c-9 -10 -19 -28 -22 -40 -10 -32 -20 -29 -40 13 -21 45
-32 38 -16 -10 24 -74 64 -88 73 -25 3 22 13 49 23 60 9 10 13 19 7 19 -5 0
-17 -8 -25 -17z"/>
<path d="M5180 1588 c0 -29 4 -60 10 -68 16 -25 21 -4 10 44 -6 26 -8 51 -5
56 3 5 1 11 -5 15 -6 4 -10 -13 -10 -47z"/>
<path d="M561 1585 c-29 -25 -41 -55 -22 -55 11 0 65 70 58 76 -2 3 -19 -7
-36 -21z"/>
<path d="M5246 1588 c-18 -25 -21 -64 -6 -73 6 -3 10 4 10 17 0 13 7 35 14 51
18 32 4 36 -18 5z"/>
<path d="M5312 1560 c-41 -29 -53 -50 -31 -50 13 0 89 61 89 72 0 15 -16 9
-58 -22z"/>
<path d="M4598 1534 c-8 -8 18 -114 31 -127 16 -16 14 14 -5 79 -16 56 -17 58
-26 48z"/>
<path d="M4681 1494 c-22 -27 -29 -84 -11 -84 6 0 10 11 10 24 0 14 12 38 26
55 19 23 22 31 11 31 -9 0 -25 -12 -36 -26z"/>
<path d="M4741 1444 c-27 -22 -42 -54 -26 -54 7 0 75 68 75 75 0 12 -20 3 -49
-21z"/>
<path d="M850 1398 c0 -6 12 -31 26 -55 33 -57 53 -53 70 12 15 61 11 69 -12
21 -10 -20 -21 -36 -24 -36 -4 0 -15 16 -26 35 -18 35 -34 45 -34 23z"/>
<path d="M999 1341 c-29 -29 -39 -61 -19 -61 6 0 10 4 10 10 0 5 14 25 31 45
37 42 20 47 -22 6z"/>
<path d="M120 1245 c0 -3 10 -21 23 -40 26 -40 57 -47 57 -12 0 13 5 28 12 35
9 9 9 12 -3 12 -9 0 -20 -10 -26 -22 l-10 -22 -18 27 c-15 24 -35 36 -35 22z"/>
<path d="M5136 1198 c-22 -35 -28 -66 -17 -85 8 -15 10 -14 16 12 3 17 12 42
20 57 17 34 1 47 -19 16z"/>
<path d="M5046 1201 c-8 -13 23 -111 36 -111 6 0 8 9 3 23 -4 12 -9 39 -12 60
-5 35 -16 47 -27 28z"/>
<path d="M241 1182 c-13 -25 -14 -32 -2 -32 9 0 23 41 16 48 -2 2 -8 -5 -14
-16z"/>
<path d="M286 1164 c-25 -24 -19 -36 9 -18 25 16 33 34 16 34 -5 0 -17 -7 -25
-16z"/>
<path d="M5219 1153 c-29 -18 -54 -52 -44 -61 3 -3 22 11 42 31 41 40 42 54 2
30z"/>
<path d="M5440 1041 c0 -16 43 -106 54 -113 20 -14 25 -8 24 25 -1 18 4 43 11
56 7 12 10 25 7 29 -8 7 -35 -28 -36 -45 0 -26 -19 -12 -30 22 -10 31 -30 49
-30 26z"/>
<path d="M754 964 l-18 -47 -38 44 c-20 24 -38 41 -38 37 0 -14 60 -102 76
-111 19 -11 17 -13 31 43 7 25 15 53 18 63 4 9 3 17 -3 17 -6 0 -18 -21 -28
-46z"/>
<path d="M5556 981 c-10 -11 -16 -30 -14 -43 4 -22 5 -22 13 -3 4 11 17 30 28
43 16 17 17 22 5 22 -8 0 -23 -9 -32 -19z"/>
<path d="M1203 947 c10 -72 63 -164 75 -129 2 7 10 12 17 12 7 0 32 23 55 50
23 28 39 50 35 50 -4 0 -27 -16 -51 -36 -37 -30 -44 -33 -44 -18 0 11 9 38 20
62 10 23 15 42 10 42 -13 0 -50 -74 -50 -100 0 -11 -4 -20 -9 -20 -11 0 -41
73 -41 100 0 10 -5 22 -12 26 -8 5 -9 -5 -5 -39z"/>
<path d="M814 958 c-4 -7 -14 -23 -22 -35 -12 -20 -12 -23 0 -23 13 0 21 12
46 63 6 12 -16 8 -24 -5z"/>
<path d="M5613 940 c-28 -17 -44 -40 -28 -40 10 0 75 45 75 53 0 12 -13 8 -47
-13z"/>
<path d="M850 925 c-22 -27 -5 -37 19 -11 19 20 21 26 9 26 -9 0 -21 -7 -28
-15z"/>
<path d="M2116 735 c-9 -13 -16 -29 -16 -35 0 -20 20 -6 41 28 17 26 18 32 6
32 -8 0 -22 -11 -31 -25z"/>
<path d="M2621 749 c-137 -16 -90 -25 62 -13 42 4 74 11 71 15 -6 10 -30 10
-133 -2z"/>
<path d="M2160 695 c-13 -14 -20 -28 -17 -32 8 -7 57 35 57 49 0 15 -16 8 -40
-17z"/>
<path d="M2885 694 c-11 -2 -73 -6 -137 -9 -70 -4 -118 -11 -118 -17 0 -7 40
-8 118 -4 162 9 223 17 216 27 -5 9 -36 10 -79 3z"/>
<path d="M317 673 c-4 -3 -7 -26 -7 -50 0 -23 -3 -43 -7 -43 -5 0 -19 17 -32
38 -13 20 -26 32 -28 25 -7 -20 43 -89 65 -89 17 0 20 7 20 63 0 66 -1 67 -11
56z"/>
<path d="M1978 668 c-30 -10 -38 -28 -13 -28 20 0 65 22 65 32 0 10 -17 9 -52
-4z"/>
<path d="M360 618 c-21 -35 -25 -54 -12 -61 10 -6 51 82 41 89 -5 3 -18 -10
-29 -28z"/>
<path d="M2096 642 c-3 -5 52 -58 122 -118 70 -59 142 -124 160 -143 22 -24
35 -32 42 -25 11 11 -33 55 -203 204 -104 91 -112 96 -121 82z"/>
<path d="M1935 614 c-74 -26 -103 -44 -69 -44 26 0 174 53 174 62 0 13 -32 8
-105 -18z"/>
<path d="M2845 619 c-66 -5 -131 -14 -145 -19 -19 -8 -8 -9 45 -5 39 2 130 8
203 11 73 4 135 11 138 16 6 9 -74 8 -241 -3z"/>
<path d="M1525 588 c12 -38 49 -101 63 -106 8 -2 12 9 12 35 0 21 7 49 16 61
9 13 13 26 10 29 -9 10 -34 -16 -40 -42 -9 -34 -20 -31 -35 10 -13 38 -37 49
-26 13z"/>
<path d="M920 583 c0 -19 52 -91 69 -96 26 -6 31 0 31 35 0 16 5 38 10 49 8
15 7 19 -4 19 -8 0 -21 -19 -29 -42 l-14 -43 -22 43 c-18 36 -41 56 -41 35z"/>
<path d="M1641 564 c-22 -28 -28 -64 -11 -64 6 0 10 6 10 14 0 7 9 25 20 39
11 14 20 28 20 31 0 14 -20 4 -39 -20z"/>
<path d="M386 555 c-24 -22 -34 -45 -20 -45 9 0 74 55 74 63 0 15 -28 6 -54
-18z"/>
<path d="M1145 540 c-38 -40 -23 -52 16 -13 17 17 27 33 22 36 -6 4 -23 -7
-38 -23z"/>
<path d="M1881 536 c-41 -18 -77 -38 -79 -46 -5 -15 -2 -14 105 33 40 18 73
35 73 40 0 13 -23 6 -99 -27z"/>
<path d="M2876 549 c-44 -5 -84 -14 -90 -20 -8 -9 1 -10 38 -5 27 3 121 9 208
13 87 3 158 10 158 15 0 10 -207 8 -314 -3z"/>
<path d="M1071 524 c-34 -43 -26 -65 9 -26 17 18 30 37 30 42 0 18 -18 10 -39
-16z"/>
<path d="M1695 525 c-24 -24 -32 -45 -17 -45 4 0 20 16 35 35 32 40 19 47 -18
10z"/>
<path d="M1805 451 c-84 -24 -97 -30 -91 -40 6 -10 153 32 170 49 14 14 -7 12
-79 -9z"/>
<path d="M1705 369 c-71 -21 -105 -39 -71 -39 32 0 156 40 156 50 0 13 -1 12
-85 -11z"/>
<path d="M1655 303 c-88 -16 -101 -21 -89 -33 8 -8 160 23 172 35 11 10 -22
10 -83 -2z"/>
<path d="M1625 240 c-55 -10 -122 -21 -149 -25 -31 -4 -45 -10 -39 -16 12 -12
291 35 307 51 13 13 4 12 -119 -10z"/>
<path d="M1551 186 c-30 -6 -56 -17 -59 -24 -6 -18 34 -14 113 13 60 20 65 23
35 23 -19 0 -59 -5 -89 -12z"/>
</g>
</svg>
